<mxfile host="Electron" modified="2023-05-14T13:08:52.535Z" agent="Mozilla/5.0 (Windows NT 10.0; Win64; x64) AppleWebKit/537.36 (KHTML, like Gecko) draw.io/21.2.8 Chrome/112.0.5615.165 Electron/24.2.0 Safari/537.36" etag="-8f3VzEl1ERNQM_-yknR" version="21.2.8" type="device" pages="3">
  <diagram name="Программа" id="xET8WpeajWXDqjrDgo5J">
    <mxGraphModel dx="2390" dy="1393" grid="1" gridSize="10" guides="1" tooltips="1" connect="1" arrows="1" fold="1" page="1" pageScale="1" pageWidth="1654" pageHeight="1169" math="0" shadow="0">
      <root>
        <mxCell id="0" />
        <mxCell id="1" parent="0" />
        <mxCell id="C2VijrxjrGzFbnaGRp3d-1" value="" style="group" vertex="1" connectable="0" parent="1">
          <mxGeometry width="1653.54" height="1169.289" as="geometry" />
        </mxCell>
        <mxCell id="C2VijrxjrGzFbnaGRp3d-2" value="" style="rounded=0;whiteSpace=wrap;html=1;aspect=fixed;fillColor=none;strokeColor=none;" vertex="1" parent="C2VijrxjrGzFbnaGRp3d-1">
          <mxGeometry width="1653.54" height="1169.289" as="geometry" />
        </mxCell>
        <mxCell id="C2VijrxjrGzFbnaGRp3d-3" value="" style="rounded=0;whiteSpace=wrap;html=1;aspect=fixed;fillColor=none;" vertex="1" parent="C2VijrxjrGzFbnaGRp3d-1">
          <mxGeometry x="78.74" y="19.685" width="1555.115" height="1129.9189999999999" as="geometry" />
        </mxCell>
        <mxCell id="C2VijrxjrGzFbnaGRp3d-4" value="" style="group" vertex="1" connectable="0" parent="C2VijrxjrGzFbnaGRp3d-1">
          <mxGeometry x="905.51" y="992.1239999999999" width="728.3499999999999" height="157.4550000000005" as="geometry" />
        </mxCell>
        <mxCell id="C2VijrxjrGzFbnaGRp3d-5" value="Утв." style="rounded=0;whiteSpace=wrap;html=1;fontFamily=Helvetica;fontStyle=2;align=left;" vertex="1" parent="C2VijrxjrGzFbnaGRp3d-4">
          <mxGeometry y="137.77000000000032" width="66.929" height="19.685" as="geometry" />
        </mxCell>
        <mxCell id="C2VijrxjrGzFbnaGRp3d-6" value="Н.контр" style="rounded=0;whiteSpace=wrap;html=1;fontFamily=Helvetica;fontStyle=2;align=left;" vertex="1" parent="C2VijrxjrGzFbnaGRp3d-4">
          <mxGeometry y="118.09000000000026" width="66.929" height="19.685" as="geometry" />
        </mxCell>
        <mxCell id="C2VijrxjrGzFbnaGRp3d-7" value="Т.контр." style="rounded=0;whiteSpace=wrap;html=1;fontFamily=Helvetica;fontStyle=2;align=left;" vertex="1" parent="C2VijrxjrGzFbnaGRp3d-4">
          <mxGeometry y="98.4100000000002" width="66.929" height="19.685" as="geometry" />
        </mxCell>
        <mxCell id="C2VijrxjrGzFbnaGRp3d-8" value="Пров." style="rounded=0;whiteSpace=wrap;html=1;fontFamily=Helvetica;fontStyle=2;align=left;" vertex="1" parent="C2VijrxjrGzFbnaGRp3d-4">
          <mxGeometry y="78.73000000000013" width="66.929" height="19.685" as="geometry" />
        </mxCell>
        <mxCell id="C2VijrxjrGzFbnaGRp3d-9" value="Разраб." style="rounded=0;whiteSpace=wrap;html=1;fontFamily=Helvetica;fontStyle=2;align=left;" vertex="1" parent="C2VijrxjrGzFbnaGRp3d-4">
          <mxGeometry y="59.05000000000007" width="66.929" height="19.685" as="geometry" />
        </mxCell>
        <mxCell id="C2VijrxjrGzFbnaGRp3d-10" value="Послед А.Е." style="rounded=0;whiteSpace=wrap;html=1;fontFamily=Helvetica;fontStyle=2;align=left;" vertex="1" parent="C2VijrxjrGzFbnaGRp3d-4">
          <mxGeometry x="66.93" y="59.04000000000008" width="90.551" height="19.685" as="geometry" />
        </mxCell>
        <mxCell id="C2VijrxjrGzFbnaGRp3d-11" value="Савенко А.Г." style="rounded=0;whiteSpace=wrap;html=1;fontFamily=Helvetica;fontStyle=2;align=left;" vertex="1" parent="C2VijrxjrGzFbnaGRp3d-4">
          <mxGeometry x="66.93" y="78.72000000000014" width="90.551" height="19.685" as="geometry" />
        </mxCell>
        <mxCell id="C2VijrxjrGzFbnaGRp3d-12" value="" style="rounded=0;whiteSpace=wrap;html=1;fontFamily=Helvetica;fontStyle=2;align=left;" vertex="1" parent="C2VijrxjrGzFbnaGRp3d-4">
          <mxGeometry x="66.93" y="98.42000000000019" width="90.551" height="19.685" as="geometry" />
        </mxCell>
        <mxCell id="C2VijrxjrGzFbnaGRp3d-13" value="" style="rounded=0;whiteSpace=wrap;html=1;fontSize=10;fontFamily=Helvetica;fontStyle=2;align=left;" vertex="1" parent="C2VijrxjrGzFbnaGRp3d-4">
          <mxGeometry x="66.93" y="118.10000000000025" width="90.551" height="19.685" as="geometry" />
        </mxCell>
        <mxCell id="C2VijrxjrGzFbnaGRp3d-14" value="" style="rounded=0;whiteSpace=wrap;html=1;fontFamily=Helvetica;fontStyle=2;align=left;" vertex="1" parent="C2VijrxjrGzFbnaGRp3d-4">
          <mxGeometry x="66.93" y="137.77000000000032" width="90.551" height="19.685" as="geometry" />
        </mxCell>
        <mxCell id="C2VijrxjrGzFbnaGRp3d-15" value="" style="rounded=0;whiteSpace=wrap;html=1;fontFamily=Helvetica;fontStyle=2;align=left;" vertex="1" parent="C2VijrxjrGzFbnaGRp3d-4">
          <mxGeometry x="157.48000000000002" y="137.77000000000032" width="59.055" height="19.685" as="geometry" />
        </mxCell>
        <mxCell id="C2VijrxjrGzFbnaGRp3d-16" value="" style="rounded=0;whiteSpace=wrap;html=1;fontFamily=Helvetica;fontStyle=2;align=left;" vertex="1" parent="C2VijrxjrGzFbnaGRp3d-4">
          <mxGeometry x="157.48000000000002" y="59.04000000000008" width="59.055" height="19.685" as="geometry" />
        </mxCell>
        <mxCell id="C2VijrxjrGzFbnaGRp3d-17" value="" style="rounded=0;whiteSpace=wrap;html=1;fontFamily=Helvetica;fontStyle=2;align=left;" vertex="1" parent="C2VijrxjrGzFbnaGRp3d-4">
          <mxGeometry x="157.48000000000002" y="78.72000000000014" width="59.055" height="19.685" as="geometry" />
        </mxCell>
        <mxCell id="C2VijrxjrGzFbnaGRp3d-18" value="" style="rounded=0;whiteSpace=wrap;html=1;fontFamily=Helvetica;fontStyle=2;align=left;" vertex="1" parent="C2VijrxjrGzFbnaGRp3d-4">
          <mxGeometry x="157.48000000000002" y="98.42000000000019" width="59.055" height="19.685" as="geometry" />
        </mxCell>
        <mxCell id="C2VijrxjrGzFbnaGRp3d-19" value="" style="rounded=0;whiteSpace=wrap;html=1;fontFamily=Helvetica;fontStyle=2;align=left;" vertex="1" parent="C2VijrxjrGzFbnaGRp3d-4">
          <mxGeometry x="157.48000000000002" y="118.10000000000025" width="59.055" height="19.685" as="geometry" />
        </mxCell>
        <mxCell id="C2VijrxjrGzFbnaGRp3d-20" value="" style="rounded=0;whiteSpace=wrap;html=1;fontFamily=Helvetica;fontStyle=2;align=left;" vertex="1" parent="C2VijrxjrGzFbnaGRp3d-4">
          <mxGeometry x="216.53000000000003" y="137.77000000000032" width="39.37" height="19.685" as="geometry" />
        </mxCell>
        <mxCell id="C2VijrxjrGzFbnaGRp3d-21" value="" style="rounded=0;whiteSpace=wrap;html=1;fontFamily=Helvetica;fontStyle=2;align=left;" vertex="1" parent="C2VijrxjrGzFbnaGRp3d-4">
          <mxGeometry x="216.53000000000003" y="59.04000000000008" width="39.37" height="19.685" as="geometry" />
        </mxCell>
        <mxCell id="C2VijrxjrGzFbnaGRp3d-22" value="" style="rounded=0;whiteSpace=wrap;html=1;fontFamily=Helvetica;fontStyle=2;align=left;" vertex="1" parent="C2VijrxjrGzFbnaGRp3d-4">
          <mxGeometry x="216.53000000000003" y="78.72000000000014" width="39.37" height="19.685" as="geometry" />
        </mxCell>
        <mxCell id="C2VijrxjrGzFbnaGRp3d-23" value="" style="rounded=0;whiteSpace=wrap;html=1;fontFamily=Helvetica;fontStyle=2;align=left;" vertex="1" parent="C2VijrxjrGzFbnaGRp3d-4">
          <mxGeometry x="216.53000000000003" y="98.42000000000019" width="39.37" height="19.685" as="geometry" />
        </mxCell>
        <mxCell id="C2VijrxjrGzFbnaGRp3d-24" value="" style="rounded=0;whiteSpace=wrap;html=1;fontFamily=Helvetica;fontStyle=2;align=left;" vertex="1" parent="C2VijrxjrGzFbnaGRp3d-4">
          <mxGeometry x="216.53000000000003" y="118.10000000000025" width="39.37" height="19.685" as="geometry" />
        </mxCell>
        <mxCell id="C2VijrxjrGzFbnaGRp3d-25" value="№ докум." style="rounded=0;whiteSpace=wrap;html=1;fontFamily=Helvetica;fontStyle=2;align=center;" vertex="1" parent="C2VijrxjrGzFbnaGRp3d-4">
          <mxGeometry x="66.93" y="39.360000000000014" width="90.551" height="19.685" as="geometry" />
        </mxCell>
        <mxCell id="C2VijrxjrGzFbnaGRp3d-26" value="Подп." style="rounded=0;whiteSpace=wrap;html=1;fontFamily=Helvetica;fontStyle=2;align=center;" vertex="1" parent="C2VijrxjrGzFbnaGRp3d-4">
          <mxGeometry x="157.48000000000002" y="39.360000000000014" width="59.055" height="19.685" as="geometry" />
        </mxCell>
        <mxCell id="C2VijrxjrGzFbnaGRp3d-27" value="Дата" style="rounded=0;whiteSpace=wrap;html=1;fontFamily=Helvetica;fontStyle=2;align=center;" vertex="1" parent="C2VijrxjrGzFbnaGRp3d-4">
          <mxGeometry x="216.53000000000003" y="39.360000000000014" width="39.37" height="19.685" as="geometry" />
        </mxCell>
        <mxCell id="C2VijrxjrGzFbnaGRp3d-28" value="" style="rounded=0;whiteSpace=wrap;html=1;fontFamily=Helvetica;fontStyle=2;align=left;" vertex="1" parent="C2VijrxjrGzFbnaGRp3d-4">
          <mxGeometry x="66.93" y="19.67999999999995" width="90.551" height="19.685" as="geometry" />
        </mxCell>
        <mxCell id="C2VijrxjrGzFbnaGRp3d-29" value="" style="rounded=0;whiteSpace=wrap;html=1;fontFamily=Helvetica;fontStyle=2;align=left;" vertex="1" parent="C2VijrxjrGzFbnaGRp3d-4">
          <mxGeometry x="157.48000000000002" y="19.67999999999995" width="59.055" height="19.685" as="geometry" />
        </mxCell>
        <mxCell id="C2VijrxjrGzFbnaGRp3d-30" value="" style="rounded=0;whiteSpace=wrap;html=1;fontFamily=Helvetica;fontStyle=2;align=left;" vertex="1" parent="C2VijrxjrGzFbnaGRp3d-4">
          <mxGeometry x="216.53000000000003" y="19.67999999999995" width="39.37" height="19.685" as="geometry" />
        </mxCell>
        <mxCell id="C2VijrxjrGzFbnaGRp3d-31" value="" style="rounded=0;whiteSpace=wrap;html=1;fontFamily=Helvetica;fontStyle=2;align=left;" vertex="1" parent="C2VijrxjrGzFbnaGRp3d-4">
          <mxGeometry x="66.93" width="90.551" height="19.685" as="geometry" />
        </mxCell>
        <mxCell id="C2VijrxjrGzFbnaGRp3d-32" value="" style="rounded=0;whiteSpace=wrap;html=1;fontFamily=Helvetica;fontStyle=2;align=left;" vertex="1" parent="C2VijrxjrGzFbnaGRp3d-4">
          <mxGeometry x="157.48000000000002" width="59.055" height="19.685" as="geometry" />
        </mxCell>
        <mxCell id="C2VijrxjrGzFbnaGRp3d-33" value="" style="rounded=0;whiteSpace=wrap;html=1;fontFamily=Helvetica;fontStyle=2;align=left;" vertex="1" parent="C2VijrxjrGzFbnaGRp3d-4">
          <mxGeometry x="216.53000000000003" width="39.37" height="19.685" as="geometry" />
        </mxCell>
        <mxCell id="C2VijrxjrGzFbnaGRp3d-34" value="Изм." style="rounded=0;whiteSpace=wrap;html=1;fontFamily=Helvetica;fontStyle=2;align=center;" vertex="1" parent="C2VijrxjrGzFbnaGRp3d-4">
          <mxGeometry y="39.360000000000014" width="27.558999999999997" height="19.685" as="geometry" />
        </mxCell>
        <mxCell id="C2VijrxjrGzFbnaGRp3d-35" value="Л." style="rounded=0;whiteSpace=wrap;html=1;fontFamily=Helvetica;fontStyle=2;align=center;" vertex="1" parent="C2VijrxjrGzFbnaGRp3d-4">
          <mxGeometry x="27.56" y="39.360000000000014" width="39.37" height="19.685" as="geometry" />
        </mxCell>
        <mxCell id="C2VijrxjrGzFbnaGRp3d-36" value="" style="rounded=0;whiteSpace=wrap;html=1;fontFamily=Helvetica;fontStyle=2;align=left;" vertex="1" parent="C2VijrxjrGzFbnaGRp3d-4">
          <mxGeometry y="19.67999999999995" width="27.558999999999997" height="19.685" as="geometry" />
        </mxCell>
        <mxCell id="C2VijrxjrGzFbnaGRp3d-37" value="" style="rounded=0;whiteSpace=wrap;html=1;fontFamily=Helvetica;fontStyle=2;align=left;" vertex="1" parent="C2VijrxjrGzFbnaGRp3d-4">
          <mxGeometry x="27.56" y="19.67999999999995" width="39.37" height="19.685" as="geometry" />
        </mxCell>
        <mxCell id="C2VijrxjrGzFbnaGRp3d-38" value="" style="rounded=0;whiteSpace=wrap;html=1;fontFamily=Helvetica;fontStyle=2;align=left;" vertex="1" parent="C2VijrxjrGzFbnaGRp3d-4">
          <mxGeometry width="27.558999999999997" height="19.685" as="geometry" />
        </mxCell>
        <mxCell id="C2VijrxjrGzFbnaGRp3d-39" value="" style="rounded=0;whiteSpace=wrap;html=1;fontFamily=Helvetica;fontStyle=2;align=left;" vertex="1" parent="C2VijrxjrGzFbnaGRp3d-4">
          <mxGeometry x="27.56" width="39.37" height="19.685" as="geometry" />
        </mxCell>
        <mxCell id="C2VijrxjrGzFbnaGRp3d-40" value="Блок-схема программы&lt;br&gt;&quot;Анализ алгоритма бинарного поиска&quot;" style="rounded=0;whiteSpace=wrap;html=1;fontFamily=Helvetica;fontStyle=2;align=center;" vertex="1" parent="C2VijrxjrGzFbnaGRp3d-4">
          <mxGeometry x="255.9" y="59.030000000000314" width="275.59" height="98.425" as="geometry" />
        </mxCell>
        <mxCell id="C2VijrxjrGzFbnaGRp3d-41" value="ГУИР.281073.001" style="rounded=0;whiteSpace=wrap;html=1;fontFamily=Helvetica;fontStyle=2;align=center;" vertex="1" parent="C2VijrxjrGzFbnaGRp3d-4">
          <mxGeometry x="255.9" y="3.410605131648481e-13" width="275.59" height="59.055" as="geometry" />
        </mxCell>
        <mxCell id="C2VijrxjrGzFbnaGRp3d-42" value="" style="rounded=0;whiteSpace=wrap;html=1;fontFamily=Helvetica;fontStyle=2;align=center;" vertex="1" parent="C2VijrxjrGzFbnaGRp3d-4">
          <mxGeometry x="531.49" y="3.410605131648481e-13" width="196.85" height="59.055" as="geometry" />
        </mxCell>
        <mxCell id="C2VijrxjrGzFbnaGRp3d-43" value="ФКТ, гр. 281073" style="rounded=0;whiteSpace=wrap;html=1;fontFamily=Helvetica;fontStyle=2;align=center;" vertex="1" parent="C2VijrxjrGzFbnaGRp3d-4">
          <mxGeometry x="531.49" y="98.40000000000043" width="196.85" height="59.055" as="geometry" />
        </mxCell>
        <mxCell id="C2VijrxjrGzFbnaGRp3d-44" value="Лит." style="rounded=0;whiteSpace=wrap;html=1;fontFamily=Helvetica;fontStyle=2;align=center;" vertex="1" parent="C2VijrxjrGzFbnaGRp3d-4">
          <mxGeometry x="531.49" y="59.050000000000296" width="59.055" height="19.685" as="geometry" />
        </mxCell>
        <mxCell id="C2VijrxjrGzFbnaGRp3d-45" value="Лист." style="rounded=0;whiteSpace=wrap;html=1;fontFamily=Helvetica;fontStyle=2;align=center;" vertex="1" parent="C2VijrxjrGzFbnaGRp3d-4">
          <mxGeometry x="590.54" y="59.030000000000314" width="59.055" height="19.685" as="geometry" />
        </mxCell>
        <mxCell id="C2VijrxjrGzFbnaGRp3d-46" value="Листов" style="rounded=0;whiteSpace=wrap;html=1;fontFamily=Helvetica;fontStyle=2;align=center;" vertex="1" parent="C2VijrxjrGzFbnaGRp3d-4">
          <mxGeometry x="649.5899999999999" y="59.030000000000314" width="78.74" height="19.685" as="geometry" />
        </mxCell>
        <mxCell id="C2VijrxjrGzFbnaGRp3d-47" value="1" style="rounded=0;whiteSpace=wrap;html=1;fontFamily=Helvetica;fontStyle=2;align=center;" vertex="1" parent="C2VijrxjrGzFbnaGRp3d-4">
          <mxGeometry x="590.55" y="78.71000000000038" width="59.055" height="19.685" as="geometry" />
        </mxCell>
        <mxCell id="C2VijrxjrGzFbnaGRp3d-48" value="3" style="rounded=0;whiteSpace=wrap;html=1;fontFamily=Helvetica;fontStyle=2;align=center;" vertex="1" parent="C2VijrxjrGzFbnaGRp3d-4">
          <mxGeometry x="649.6099999999999" y="78.71000000000038" width="78.74" height="19.685" as="geometry" />
        </mxCell>
        <mxCell id="C2VijrxjrGzFbnaGRp3d-49" value="" style="rounded=0;whiteSpace=wrap;html=1;fontFamily=Helvetica;fontStyle=2;align=center;" vertex="1" parent="C2VijrxjrGzFbnaGRp3d-4">
          <mxGeometry x="531.49" y="78.73000000000036" width="19.685" height="19.685" as="geometry" />
        </mxCell>
        <mxCell id="C2VijrxjrGzFbnaGRp3d-50" value="Т" style="rounded=0;whiteSpace=wrap;html=1;fontFamily=Helvetica;fontStyle=2;align=center;" vertex="1" parent="C2VijrxjrGzFbnaGRp3d-4">
          <mxGeometry x="551.17" y="78.71000000000038" width="19.685" height="19.685" as="geometry" />
        </mxCell>
        <mxCell id="C2VijrxjrGzFbnaGRp3d-51" value="" style="rounded=0;whiteSpace=wrap;html=1;fontFamily=Helvetica;fontStyle=2;align=center;" vertex="1" parent="C2VijrxjrGzFbnaGRp3d-4">
          <mxGeometry x="570.8499999999999" y="78.73000000000036" width="19.685" height="19.685" as="geometry" />
        </mxCell>
        <mxCell id="C2VijrxjrGzFbnaGRp3d-169" value="" style="group" vertex="1" connectable="0" parent="C2VijrxjrGzFbnaGRp3d-1">
          <mxGeometry x="663" y="345" width="327.17" height="479.3699999999999" as="geometry" />
        </mxCell>
        <mxCell id="C2VijrxjrGzFbnaGRp3d-136" value="Начало" style="strokeWidth=1;html=1;shape=stencil(xVXBboMwDP0ajkxAtK49Tqw79rJJO7vUpVFDgpysdH+/0IBaoDCayyQO+Bne83NsJWCpPkCJQRJJKDBgb0GSfCIVXIJRZAObOTh4EbmwcuFq6ULQJWbGYScgDluBLqMNqSNWfGcaBi4PSNzUWbYOolf7Tf2wNFNSWhKupO5kbvKWDLi0/0ZnRxY9PTuZnyZ2UWkVCjRIHfRqbuOAIHn3VornKX14KHUdtbp/KX09rhT7Ka19uhf3xeKZHdx4GLsjt1zNPDAvuZb9cXdezRzIzXY3IsdSi4wtIEu3kB1zUt9yd7fIEurlHiTadKFOeK2+P99T/lsGweUNw8vycQagzL5QrwZqKFgTn0M4cx2SMlC3ocMvgHIMLU+4F5B3UrpCLG/g5uzvl7vwcNzr2TyKf7Tsc8aZUBonNsHigzm7oCPDydK9IpyY2j0Xwt1OYwsxILig7q68AL8=);whiteSpace=wrap;aspect=fixed;" vertex="1" parent="C2VijrxjrGzFbnaGRp3d-169">
          <mxGeometry width="118.11" height="39.37" as="geometry" />
        </mxCell>
        <mxCell id="C2VijrxjrGzFbnaGRp3d-138" value="Результат&lt;br&gt;бинарного &lt;br&gt;поиска" style="shape=parallelogram;perimeter=parallelogramPerimeter;whiteSpace=wrap;html=1;fixedSize=1;aspect=fixed;" vertex="1" parent="C2VijrxjrGzFbnaGRp3d-169">
          <mxGeometry y="320" width="118.11" height="78.74" as="geometry" />
        </mxCell>
        <mxCell id="C2VijrxjrGzFbnaGRp3d-139" value="Создать объект search_data класса SearchData" style="rounded=0;whiteSpace=wrap;html=1;aspect=fixed;" vertex="1" parent="C2VijrxjrGzFbnaGRp3d-169">
          <mxGeometry y="80" width="118.11" height="78.74" as="geometry" />
        </mxCell>
        <mxCell id="C2VijrxjrGzFbnaGRp3d-146" style="edgeStyle=orthogonalEdgeStyle;shape=connector;rounded=0;orthogonalLoop=1;jettySize=auto;html=1;labelBackgroundColor=default;strokeColor=default;fontFamily=Helvetica;fontSize=11;fontColor=default;endArrow=none;endFill=0;" edge="1" parent="C2VijrxjrGzFbnaGRp3d-169" source="C2VijrxjrGzFbnaGRp3d-136" target="C2VijrxjrGzFbnaGRp3d-139">
          <mxGeometry relative="1" as="geometry" />
        </mxCell>
        <mxCell id="C2VijrxjrGzFbnaGRp3d-142" style="edgeStyle=orthogonalEdgeStyle;rounded=0;orthogonalLoop=1;jettySize=auto;html=1;endArrow=none;endFill=0;" edge="1" parent="C2VijrxjrGzFbnaGRp3d-169" source="C2VijrxjrGzFbnaGRp3d-140" target="C2VijrxjrGzFbnaGRp3d-138">
          <mxGeometry relative="1" as="geometry" />
        </mxCell>
        <mxCell id="C2VijrxjrGzFbnaGRp3d-140" value="Search ::binary_search (search_data)" style="shape=process;whiteSpace=wrap;html=1;backgroundOutline=1;aspect=fixed;" vertex="1" parent="C2VijrxjrGzFbnaGRp3d-169">
          <mxGeometry y="200" width="118.11" height="78.74" as="geometry" />
        </mxCell>
        <mxCell id="C2VijrxjrGzFbnaGRp3d-141" style="edgeStyle=orthogonalEdgeStyle;rounded=0;orthogonalLoop=1;jettySize=auto;html=1;endArrow=none;endFill=0;" edge="1" parent="C2VijrxjrGzFbnaGRp3d-169" source="C2VijrxjrGzFbnaGRp3d-139" target="C2VijrxjrGzFbnaGRp3d-140">
          <mxGeometry relative="1" as="geometry" />
        </mxCell>
        <mxCell id="C2VijrxjrGzFbnaGRp3d-143" value="search_data .clear()" style="shape=process;whiteSpace=wrap;html=1;backgroundOutline=1;aspect=fixed;" vertex="1" parent="C2VijrxjrGzFbnaGRp3d-169">
          <mxGeometry x="209.06" y="80" width="118.11" height="78.74" as="geometry" />
        </mxCell>
        <mxCell id="C2VijrxjrGzFbnaGRp3d-148" value="Результат&lt;br&gt;линейного&lt;br&gt;поиска" style="shape=parallelogram;perimeter=parallelogramPerimeter;whiteSpace=wrap;html=1;fixedSize=1;aspect=fixed;" vertex="1" parent="C2VijrxjrGzFbnaGRp3d-169">
          <mxGeometry x="209.06" y="320" width="118.11" height="78.74" as="geometry" />
        </mxCell>
        <mxCell id="C2VijrxjrGzFbnaGRp3d-151" style="edgeStyle=orthogonalEdgeStyle;rounded=0;orthogonalLoop=1;jettySize=auto;html=1;endArrow=none;endFill=0;" edge="1" source="C2VijrxjrGzFbnaGRp3d-152" target="C2VijrxjrGzFbnaGRp3d-148" parent="C2VijrxjrGzFbnaGRp3d-169">
          <mxGeometry relative="1" as="geometry" />
        </mxCell>
        <mxCell id="C2VijrxjrGzFbnaGRp3d-152" value="Search ::linear_search (search_data)" style="shape=process;whiteSpace=wrap;html=1;backgroundOutline=1;aspect=fixed;" vertex="1" parent="C2VijrxjrGzFbnaGRp3d-169">
          <mxGeometry x="209.06" y="200" width="118.11" height="78.74" as="geometry" />
        </mxCell>
        <mxCell id="C2VijrxjrGzFbnaGRp3d-164" style="edgeStyle=orthogonalEdgeStyle;shape=connector;rounded=0;orthogonalLoop=1;jettySize=auto;html=1;labelBackgroundColor=default;strokeColor=default;fontFamily=Helvetica;fontSize=11;fontColor=default;endArrow=none;endFill=0;" edge="1" parent="C2VijrxjrGzFbnaGRp3d-169" source="C2VijrxjrGzFbnaGRp3d-143" target="C2VijrxjrGzFbnaGRp3d-152">
          <mxGeometry relative="1" as="geometry" />
        </mxCell>
        <mxCell id="C2VijrxjrGzFbnaGRp3d-159" value="1" style="ellipse;whiteSpace=wrap;html=1;aspect=fixed;fontFamily=Helvetica;fontSize=11;fontColor=default;" vertex="1" parent="C2VijrxjrGzFbnaGRp3d-169">
          <mxGeometry x="39.370000000000005" y="440" width="39.37" height="39.37" as="geometry" />
        </mxCell>
        <mxCell id="C2VijrxjrGzFbnaGRp3d-166" style="edgeStyle=orthogonalEdgeStyle;shape=connector;rounded=0;orthogonalLoop=1;jettySize=auto;html=1;labelBackgroundColor=default;strokeColor=default;fontFamily=Helvetica;fontSize=11;fontColor=default;endArrow=none;endFill=0;" edge="1" parent="C2VijrxjrGzFbnaGRp3d-169" source="C2VijrxjrGzFbnaGRp3d-138" target="C2VijrxjrGzFbnaGRp3d-159">
          <mxGeometry relative="1" as="geometry" />
        </mxCell>
        <mxCell id="C2VijrxjrGzFbnaGRp3d-165" style="edgeStyle=orthogonalEdgeStyle;shape=connector;rounded=0;orthogonalLoop=1;jettySize=auto;html=1;labelBackgroundColor=default;strokeColor=default;fontFamily=Helvetica;fontSize=11;fontColor=default;endArrow=none;endFill=0;" edge="1" parent="C2VijrxjrGzFbnaGRp3d-169" source="C2VijrxjrGzFbnaGRp3d-160" target="C2VijrxjrGzFbnaGRp3d-143">
          <mxGeometry relative="1" as="geometry" />
        </mxCell>
        <mxCell id="C2VijrxjrGzFbnaGRp3d-160" value="1" style="ellipse;whiteSpace=wrap;html=1;aspect=fixed;fontFamily=Helvetica;fontSize=11;fontColor=default;" vertex="1" parent="C2VijrxjrGzFbnaGRp3d-169">
          <mxGeometry x="248.43" width="39.37" height="39.37" as="geometry" />
        </mxCell>
        <mxCell id="C2VijrxjrGzFbnaGRp3d-167" value="Конец" style="strokeWidth=1;html=1;shape=stencil(xVXBboMwDP0ajkxAtK49Tqw79rJJO7vUpVFDgpysdH+/0IBaoDCayyQO+Bne83NsJWCpPkCJQRJJKDBgb0GSfCIVXIJRZAObOTh4EbmwcuFq6ULQJWbGYScgDluBLqMNqSNWfGcaBi4PSNzUWbYOolf7Tf2wNFNSWhKupO5kbvKWDLi0/0ZnRxY9PTuZnyZ2UWkVCjRIHfRqbuOAIHn3VornKX14KHUdtbp/KX09rhT7Ka19uhf3xeKZHdx4GLsjt1zNPDAvuZb9cXdezRzIzXY3IsdSi4wtIEu3kB1zUt9yd7fIEurlHiTadKFOeK2+P99T/lsGweUNw8vycQagzL5QrwZqKFgTn0M4cx2SMlC3ocMvgHIMLU+4F5B3UrpCLG/g5uzvl7vwcNzr2TyKf7Tsc8aZUBonNsHigzm7oCPDydK9IpyY2j0Xwt1OYwsxILig7q68AL8=);whiteSpace=wrap;aspect=fixed;" vertex="1" parent="C2VijrxjrGzFbnaGRp3d-169">
          <mxGeometry x="209.06" y="440" width="118.11" height="39.37" as="geometry" />
        </mxCell>
        <mxCell id="C2VijrxjrGzFbnaGRp3d-168" style="edgeStyle=orthogonalEdgeStyle;shape=connector;rounded=0;orthogonalLoop=1;jettySize=auto;html=1;labelBackgroundColor=default;strokeColor=default;fontFamily=Helvetica;fontSize=11;fontColor=default;endArrow=none;endFill=0;" edge="1" parent="C2VijrxjrGzFbnaGRp3d-169" source="C2VijrxjrGzFbnaGRp3d-148" target="C2VijrxjrGzFbnaGRp3d-167">
          <mxGeometry relative="1" as="geometry" />
        </mxCell>
      </root>
    </mxGraphModel>
  </diagram>
  <diagram id="12vq9Y3TH4f5e7eWbLYs" name="Бинарный поиск">
    <mxGraphModel dx="2607" dy="1520" grid="1" gridSize="10" guides="1" tooltips="1" connect="1" arrows="1" fold="1" page="1" pageScale="1" pageWidth="1654" pageHeight="1169" math="0" shadow="0">
      <root>
        <mxCell id="0" />
        <mxCell id="1" parent="0" />
        <mxCell id="O8id9JBs3odU8axEPJ_L-1" value="" style="group" vertex="1" connectable="0" parent="1">
          <mxGeometry width="1653.54" height="1169.289" as="geometry" />
        </mxCell>
        <mxCell id="O8id9JBs3odU8axEPJ_L-2" value="" style="rounded=0;whiteSpace=wrap;html=1;aspect=fixed;fillColor=none;strokeColor=none;" vertex="1" parent="O8id9JBs3odU8axEPJ_L-1">
          <mxGeometry width="1653.54" height="1169.289" as="geometry" />
        </mxCell>
        <mxCell id="O8id9JBs3odU8axEPJ_L-3" value="" style="rounded=0;whiteSpace=wrap;html=1;aspect=fixed;fillColor=none;" vertex="1" parent="O8id9JBs3odU8axEPJ_L-1">
          <mxGeometry x="78.74" y="19.685" width="1555.115" height="1129.9189999999999" as="geometry" />
        </mxCell>
        <mxCell id="O8id9JBs3odU8axEPJ_L-4" value="" style="group" vertex="1" connectable="0" parent="O8id9JBs3odU8axEPJ_L-1">
          <mxGeometry x="905.51" y="992.1239999999999" width="728.3499999999999" height="157.4550000000005" as="geometry" />
        </mxCell>
        <mxCell id="O8id9JBs3odU8axEPJ_L-5" value="Утв." style="rounded=0;whiteSpace=wrap;html=1;fontFamily=Helvetica;fontStyle=2;align=left;" vertex="1" parent="O8id9JBs3odU8axEPJ_L-4">
          <mxGeometry y="137.77000000000032" width="66.929" height="19.685" as="geometry" />
        </mxCell>
        <mxCell id="O8id9JBs3odU8axEPJ_L-6" value="Н.контр" style="rounded=0;whiteSpace=wrap;html=1;fontFamily=Helvetica;fontStyle=2;align=left;" vertex="1" parent="O8id9JBs3odU8axEPJ_L-4">
          <mxGeometry y="118.09000000000026" width="66.929" height="19.685" as="geometry" />
        </mxCell>
        <mxCell id="O8id9JBs3odU8axEPJ_L-7" value="Т.контр." style="rounded=0;whiteSpace=wrap;html=1;fontFamily=Helvetica;fontStyle=2;align=left;" vertex="1" parent="O8id9JBs3odU8axEPJ_L-4">
          <mxGeometry y="98.4100000000002" width="66.929" height="19.685" as="geometry" />
        </mxCell>
        <mxCell id="O8id9JBs3odU8axEPJ_L-8" value="Пров." style="rounded=0;whiteSpace=wrap;html=1;fontFamily=Helvetica;fontStyle=2;align=left;" vertex="1" parent="O8id9JBs3odU8axEPJ_L-4">
          <mxGeometry y="78.73000000000013" width="66.929" height="19.685" as="geometry" />
        </mxCell>
        <mxCell id="O8id9JBs3odU8axEPJ_L-9" value="Разраб." style="rounded=0;whiteSpace=wrap;html=1;fontFamily=Helvetica;fontStyle=2;align=left;" vertex="1" parent="O8id9JBs3odU8axEPJ_L-4">
          <mxGeometry y="59.05000000000007" width="66.929" height="19.685" as="geometry" />
        </mxCell>
        <mxCell id="O8id9JBs3odU8axEPJ_L-10" value="Послед А.Е." style="rounded=0;whiteSpace=wrap;html=1;fontFamily=Helvetica;fontStyle=2;align=left;" vertex="1" parent="O8id9JBs3odU8axEPJ_L-4">
          <mxGeometry x="66.93" y="59.04000000000008" width="90.551" height="19.685" as="geometry" />
        </mxCell>
        <mxCell id="O8id9JBs3odU8axEPJ_L-11" value="Савенко А.Г." style="rounded=0;whiteSpace=wrap;html=1;fontFamily=Helvetica;fontStyle=2;align=left;" vertex="1" parent="O8id9JBs3odU8axEPJ_L-4">
          <mxGeometry x="66.93" y="78.72000000000014" width="90.551" height="19.685" as="geometry" />
        </mxCell>
        <mxCell id="O8id9JBs3odU8axEPJ_L-12" value="" style="rounded=0;whiteSpace=wrap;html=1;fontFamily=Helvetica;fontStyle=2;align=left;" vertex="1" parent="O8id9JBs3odU8axEPJ_L-4">
          <mxGeometry x="66.93" y="98.42000000000019" width="90.551" height="19.685" as="geometry" />
        </mxCell>
        <mxCell id="O8id9JBs3odU8axEPJ_L-13" value="" style="rounded=0;whiteSpace=wrap;html=1;fontSize=10;fontFamily=Helvetica;fontStyle=2;align=left;" vertex="1" parent="O8id9JBs3odU8axEPJ_L-4">
          <mxGeometry x="66.93" y="118.10000000000025" width="90.551" height="19.685" as="geometry" />
        </mxCell>
        <mxCell id="O8id9JBs3odU8axEPJ_L-14" value="" style="rounded=0;whiteSpace=wrap;html=1;fontFamily=Helvetica;fontStyle=2;align=left;" vertex="1" parent="O8id9JBs3odU8axEPJ_L-4">
          <mxGeometry x="66.93" y="137.77000000000032" width="90.551" height="19.685" as="geometry" />
        </mxCell>
        <mxCell id="O8id9JBs3odU8axEPJ_L-15" value="" style="rounded=0;whiteSpace=wrap;html=1;fontFamily=Helvetica;fontStyle=2;align=left;" vertex="1" parent="O8id9JBs3odU8axEPJ_L-4">
          <mxGeometry x="157.48000000000002" y="137.77000000000032" width="59.055" height="19.685" as="geometry" />
        </mxCell>
        <mxCell id="O8id9JBs3odU8axEPJ_L-16" value="" style="rounded=0;whiteSpace=wrap;html=1;fontFamily=Helvetica;fontStyle=2;align=left;" vertex="1" parent="O8id9JBs3odU8axEPJ_L-4">
          <mxGeometry x="157.48000000000002" y="59.04000000000008" width="59.055" height="19.685" as="geometry" />
        </mxCell>
        <mxCell id="O8id9JBs3odU8axEPJ_L-17" value="" style="rounded=0;whiteSpace=wrap;html=1;fontFamily=Helvetica;fontStyle=2;align=left;" vertex="1" parent="O8id9JBs3odU8axEPJ_L-4">
          <mxGeometry x="157.48000000000002" y="78.72000000000014" width="59.055" height="19.685" as="geometry" />
        </mxCell>
        <mxCell id="O8id9JBs3odU8axEPJ_L-18" value="" style="rounded=0;whiteSpace=wrap;html=1;fontFamily=Helvetica;fontStyle=2;align=left;" vertex="1" parent="O8id9JBs3odU8axEPJ_L-4">
          <mxGeometry x="157.48000000000002" y="98.42000000000019" width="59.055" height="19.685" as="geometry" />
        </mxCell>
        <mxCell id="O8id9JBs3odU8axEPJ_L-19" value="" style="rounded=0;whiteSpace=wrap;html=1;fontFamily=Helvetica;fontStyle=2;align=left;" vertex="1" parent="O8id9JBs3odU8axEPJ_L-4">
          <mxGeometry x="157.48000000000002" y="118.10000000000025" width="59.055" height="19.685" as="geometry" />
        </mxCell>
        <mxCell id="O8id9JBs3odU8axEPJ_L-20" value="" style="rounded=0;whiteSpace=wrap;html=1;fontFamily=Helvetica;fontStyle=2;align=left;" vertex="1" parent="O8id9JBs3odU8axEPJ_L-4">
          <mxGeometry x="216.53000000000003" y="137.77000000000032" width="39.37" height="19.685" as="geometry" />
        </mxCell>
        <mxCell id="O8id9JBs3odU8axEPJ_L-21" value="" style="rounded=0;whiteSpace=wrap;html=1;fontFamily=Helvetica;fontStyle=2;align=left;" vertex="1" parent="O8id9JBs3odU8axEPJ_L-4">
          <mxGeometry x="216.53000000000003" y="59.04000000000008" width="39.37" height="19.685" as="geometry" />
        </mxCell>
        <mxCell id="O8id9JBs3odU8axEPJ_L-22" value="" style="rounded=0;whiteSpace=wrap;html=1;fontFamily=Helvetica;fontStyle=2;align=left;" vertex="1" parent="O8id9JBs3odU8axEPJ_L-4">
          <mxGeometry x="216.53000000000003" y="78.72000000000014" width="39.37" height="19.685" as="geometry" />
        </mxCell>
        <mxCell id="O8id9JBs3odU8axEPJ_L-23" value="" style="rounded=0;whiteSpace=wrap;html=1;fontFamily=Helvetica;fontStyle=2;align=left;" vertex="1" parent="O8id9JBs3odU8axEPJ_L-4">
          <mxGeometry x="216.53000000000003" y="98.42000000000019" width="39.37" height="19.685" as="geometry" />
        </mxCell>
        <mxCell id="O8id9JBs3odU8axEPJ_L-24" value="" style="rounded=0;whiteSpace=wrap;html=1;fontFamily=Helvetica;fontStyle=2;align=left;" vertex="1" parent="O8id9JBs3odU8axEPJ_L-4">
          <mxGeometry x="216.53000000000003" y="118.10000000000025" width="39.37" height="19.685" as="geometry" />
        </mxCell>
        <mxCell id="O8id9JBs3odU8axEPJ_L-25" value="№ докум." style="rounded=0;whiteSpace=wrap;html=1;fontFamily=Helvetica;fontStyle=2;align=center;" vertex="1" parent="O8id9JBs3odU8axEPJ_L-4">
          <mxGeometry x="66.93" y="39.360000000000014" width="90.551" height="19.685" as="geometry" />
        </mxCell>
        <mxCell id="O8id9JBs3odU8axEPJ_L-26" value="Подп." style="rounded=0;whiteSpace=wrap;html=1;fontFamily=Helvetica;fontStyle=2;align=center;" vertex="1" parent="O8id9JBs3odU8axEPJ_L-4">
          <mxGeometry x="157.48000000000002" y="39.360000000000014" width="59.055" height="19.685" as="geometry" />
        </mxCell>
        <mxCell id="O8id9JBs3odU8axEPJ_L-27" value="Дата" style="rounded=0;whiteSpace=wrap;html=1;fontFamily=Helvetica;fontStyle=2;align=center;" vertex="1" parent="O8id9JBs3odU8axEPJ_L-4">
          <mxGeometry x="216.53000000000003" y="39.360000000000014" width="39.37" height="19.685" as="geometry" />
        </mxCell>
        <mxCell id="O8id9JBs3odU8axEPJ_L-28" value="" style="rounded=0;whiteSpace=wrap;html=1;fontFamily=Helvetica;fontStyle=2;align=left;" vertex="1" parent="O8id9JBs3odU8axEPJ_L-4">
          <mxGeometry x="66.93" y="19.67999999999995" width="90.551" height="19.685" as="geometry" />
        </mxCell>
        <mxCell id="O8id9JBs3odU8axEPJ_L-29" value="" style="rounded=0;whiteSpace=wrap;html=1;fontFamily=Helvetica;fontStyle=2;align=left;" vertex="1" parent="O8id9JBs3odU8axEPJ_L-4">
          <mxGeometry x="157.48000000000002" y="19.67999999999995" width="59.055" height="19.685" as="geometry" />
        </mxCell>
        <mxCell id="O8id9JBs3odU8axEPJ_L-30" value="" style="rounded=0;whiteSpace=wrap;html=1;fontFamily=Helvetica;fontStyle=2;align=left;" vertex="1" parent="O8id9JBs3odU8axEPJ_L-4">
          <mxGeometry x="216.53000000000003" y="19.67999999999995" width="39.37" height="19.685" as="geometry" />
        </mxCell>
        <mxCell id="O8id9JBs3odU8axEPJ_L-31" value="" style="rounded=0;whiteSpace=wrap;html=1;fontFamily=Helvetica;fontStyle=2;align=left;" vertex="1" parent="O8id9JBs3odU8axEPJ_L-4">
          <mxGeometry x="66.93" width="90.551" height="19.685" as="geometry" />
        </mxCell>
        <mxCell id="O8id9JBs3odU8axEPJ_L-32" value="" style="rounded=0;whiteSpace=wrap;html=1;fontFamily=Helvetica;fontStyle=2;align=left;" vertex="1" parent="O8id9JBs3odU8axEPJ_L-4">
          <mxGeometry x="157.48000000000002" width="59.055" height="19.685" as="geometry" />
        </mxCell>
        <mxCell id="O8id9JBs3odU8axEPJ_L-33" value="" style="rounded=0;whiteSpace=wrap;html=1;fontFamily=Helvetica;fontStyle=2;align=left;" vertex="1" parent="O8id9JBs3odU8axEPJ_L-4">
          <mxGeometry x="216.53000000000003" width="39.37" height="19.685" as="geometry" />
        </mxCell>
        <mxCell id="O8id9JBs3odU8axEPJ_L-34" value="Изм." style="rounded=0;whiteSpace=wrap;html=1;fontFamily=Helvetica;fontStyle=2;align=center;" vertex="1" parent="O8id9JBs3odU8axEPJ_L-4">
          <mxGeometry y="39.360000000000014" width="27.558999999999997" height="19.685" as="geometry" />
        </mxCell>
        <mxCell id="O8id9JBs3odU8axEPJ_L-35" value="Л." style="rounded=0;whiteSpace=wrap;html=1;fontFamily=Helvetica;fontStyle=2;align=center;" vertex="1" parent="O8id9JBs3odU8axEPJ_L-4">
          <mxGeometry x="27.56" y="39.360000000000014" width="39.37" height="19.685" as="geometry" />
        </mxCell>
        <mxCell id="O8id9JBs3odU8axEPJ_L-36" value="" style="rounded=0;whiteSpace=wrap;html=1;fontFamily=Helvetica;fontStyle=2;align=left;" vertex="1" parent="O8id9JBs3odU8axEPJ_L-4">
          <mxGeometry y="19.67999999999995" width="27.558999999999997" height="19.685" as="geometry" />
        </mxCell>
        <mxCell id="O8id9JBs3odU8axEPJ_L-37" value="" style="rounded=0;whiteSpace=wrap;html=1;fontFamily=Helvetica;fontStyle=2;align=left;" vertex="1" parent="O8id9JBs3odU8axEPJ_L-4">
          <mxGeometry x="27.56" y="19.67999999999995" width="39.37" height="19.685" as="geometry" />
        </mxCell>
        <mxCell id="O8id9JBs3odU8axEPJ_L-38" value="" style="rounded=0;whiteSpace=wrap;html=1;fontFamily=Helvetica;fontStyle=2;align=left;" vertex="1" parent="O8id9JBs3odU8axEPJ_L-4">
          <mxGeometry width="27.558999999999997" height="19.685" as="geometry" />
        </mxCell>
        <mxCell id="O8id9JBs3odU8axEPJ_L-39" value="" style="rounded=0;whiteSpace=wrap;html=1;fontFamily=Helvetica;fontStyle=2;align=left;" vertex="1" parent="O8id9JBs3odU8axEPJ_L-4">
          <mxGeometry x="27.56" width="39.37" height="19.685" as="geometry" />
        </mxCell>
        <mxCell id="O8id9JBs3odU8axEPJ_L-40" value="Блок-схема алгоритма&lt;br&gt;&quot;Алгоритм бинарного поиска&quot;" style="rounded=0;whiteSpace=wrap;html=1;fontFamily=Helvetica;fontStyle=2;align=center;" vertex="1" parent="O8id9JBs3odU8axEPJ_L-4">
          <mxGeometry x="255.9" y="59.030000000000314" width="275.59" height="98.425" as="geometry" />
        </mxCell>
        <mxCell id="O8id9JBs3odU8axEPJ_L-41" value="ГУИР.281073.002" style="rounded=0;whiteSpace=wrap;html=1;fontFamily=Helvetica;fontStyle=2;align=center;" vertex="1" parent="O8id9JBs3odU8axEPJ_L-4">
          <mxGeometry x="255.9" y="3.410605131648481e-13" width="275.59" height="59.055" as="geometry" />
        </mxCell>
        <mxCell id="O8id9JBs3odU8axEPJ_L-42" value="" style="rounded=0;whiteSpace=wrap;html=1;fontFamily=Helvetica;fontStyle=2;align=center;" vertex="1" parent="O8id9JBs3odU8axEPJ_L-4">
          <mxGeometry x="531.49" y="3.410605131648481e-13" width="196.85" height="59.055" as="geometry" />
        </mxCell>
        <mxCell id="O8id9JBs3odU8axEPJ_L-43" value="ФКТ, гр. 281073" style="rounded=0;whiteSpace=wrap;html=1;fontFamily=Helvetica;fontStyle=2;align=center;" vertex="1" parent="O8id9JBs3odU8axEPJ_L-4">
          <mxGeometry x="531.49" y="98.40000000000043" width="196.85" height="59.055" as="geometry" />
        </mxCell>
        <mxCell id="O8id9JBs3odU8axEPJ_L-44" value="Лит." style="rounded=0;whiteSpace=wrap;html=1;fontFamily=Helvetica;fontStyle=2;align=center;" vertex="1" parent="O8id9JBs3odU8axEPJ_L-4">
          <mxGeometry x="531.49" y="59.050000000000296" width="59.055" height="19.685" as="geometry" />
        </mxCell>
        <mxCell id="O8id9JBs3odU8axEPJ_L-45" value="Лист." style="rounded=0;whiteSpace=wrap;html=1;fontFamily=Helvetica;fontStyle=2;align=center;" vertex="1" parent="O8id9JBs3odU8axEPJ_L-4">
          <mxGeometry x="590.54" y="59.030000000000314" width="59.055" height="19.685" as="geometry" />
        </mxCell>
        <mxCell id="O8id9JBs3odU8axEPJ_L-46" value="Листов" style="rounded=0;whiteSpace=wrap;html=1;fontFamily=Helvetica;fontStyle=2;align=center;" vertex="1" parent="O8id9JBs3odU8axEPJ_L-4">
          <mxGeometry x="649.5899999999999" y="59.030000000000314" width="78.74" height="19.685" as="geometry" />
        </mxCell>
        <mxCell id="O8id9JBs3odU8axEPJ_L-47" value="2" style="rounded=0;whiteSpace=wrap;html=1;fontFamily=Helvetica;fontStyle=2;align=center;" vertex="1" parent="O8id9JBs3odU8axEPJ_L-4">
          <mxGeometry x="590.55" y="78.71000000000038" width="59.055" height="19.685" as="geometry" />
        </mxCell>
        <mxCell id="O8id9JBs3odU8axEPJ_L-48" value="3" style="rounded=0;whiteSpace=wrap;html=1;fontFamily=Helvetica;fontStyle=2;align=center;" vertex="1" parent="O8id9JBs3odU8axEPJ_L-4">
          <mxGeometry x="649.6099999999999" y="78.71000000000038" width="78.74" height="19.685" as="geometry" />
        </mxCell>
        <mxCell id="O8id9JBs3odU8axEPJ_L-49" value="" style="rounded=0;whiteSpace=wrap;html=1;fontFamily=Helvetica;fontStyle=2;align=center;" vertex="1" parent="O8id9JBs3odU8axEPJ_L-4">
          <mxGeometry x="531.49" y="78.73000000000036" width="19.685" height="19.685" as="geometry" />
        </mxCell>
        <mxCell id="O8id9JBs3odU8axEPJ_L-50" value="Т" style="rounded=0;whiteSpace=wrap;html=1;fontFamily=Helvetica;fontStyle=2;align=center;" vertex="1" parent="O8id9JBs3odU8axEPJ_L-4">
          <mxGeometry x="551.17" y="78.71000000000038" width="19.685" height="19.685" as="geometry" />
        </mxCell>
        <mxCell id="O8id9JBs3odU8axEPJ_L-51" value="" style="rounded=0;whiteSpace=wrap;html=1;fontFamily=Helvetica;fontStyle=2;align=center;" vertex="1" parent="O8id9JBs3odU8axEPJ_L-4">
          <mxGeometry x="570.8499999999999" y="78.73000000000036" width="19.685" height="19.685" as="geometry" />
        </mxCell>
        <mxCell id="6NQg0BldIb21Iv9Iyl6s-38" value="" style="group" vertex="1" connectable="0" parent="O8id9JBs3odU8axEPJ_L-1">
          <mxGeometry x="537.74" y="214.63999999999987" width="637.11" height="740" as="geometry" />
        </mxCell>
        <mxCell id="6NQg0BldIb21Iv9Iyl6s-1" value="Начало" style="strokeWidth=1;html=1;shape=stencil(xVXBboMwDP0ajkxAtK49Tqw79rJJO7vUpVFDgpysdH+/0IBaoDCayyQO+Bne83NsJWCpPkCJQRJJKDBgb0GSfCIVXIJRZAObOTh4EbmwcuFq6ULQJWbGYScgDluBLqMNqSNWfGcaBi4PSNzUWbYOolf7Tf2wNFNSWhKupO5kbvKWDLi0/0ZnRxY9PTuZnyZ2UWkVCjRIHfRqbuOAIHn3VornKX14KHUdtbp/KX09rhT7Ka19uhf3xeKZHdx4GLsjt1zNPDAvuZb9cXdezRzIzXY3IsdSi4wtIEu3kB1zUt9yd7fIEurlHiTadKFOeK2+P99T/lsGweUNw8vycQagzL5QrwZqKFgTn0M4cx2SMlC3ocMvgHIMLU+4F5B3UrpCLG/g5uzvl7vwcNzr2TyKf7Tsc8aZUBonNsHigzm7oCPDydK9IpyY2j0Xwt1OYwsxILig7q68AL8=);whiteSpace=wrap;aspect=fixed;fontFamily=Helvetica;fontSize=11;fontColor=default;" vertex="1" parent="6NQg0BldIb21Iv9Iyl6s-38">
          <mxGeometry width="118.11" height="39.37" as="geometry" />
        </mxCell>
        <mxCell id="6NQg0BldIb21Iv9Iyl6s-2" value="Конец" style="strokeWidth=1;html=1;shape=stencil(xVXBboMwDP0ajkxAtK49Tqw79rJJO7vUpVFDgpysdH+/0IBaoDCayyQO+Bne83NsJWCpPkCJQRJJKDBgb0GSfCIVXIJRZAObOTh4EbmwcuFq6ULQJWbGYScgDluBLqMNqSNWfGcaBi4PSNzUWbYOolf7Tf2wNFNSWhKupO5kbvKWDLi0/0ZnRxY9PTuZnyZ2UWkVCjRIHfRqbuOAIHn3VornKX14KHUdtbp/KX09rhT7Ka19uhf3xeKZHdx4GLsjt1zNPDAvuZb9cXdezRzIzXY3IsdSi4wtIEu3kB1zUt9yd7fIEurlHiTadKFOeK2+P99T/lsGweUNw8vycQagzL5QrwZqKFgTn0M4cx2SMlC3ocMvgHIMLU+4F5B3UrpCLG/g5uzvl7vwcNzr2TyKf7Tsc8aZUBonNsHigzm7oCPDydK9IpyY2j0Xwt1OYwsxILig7q68AL8=);whiteSpace=wrap;aspect=fixed;fontFamily=Helvetica;fontSize=11;fontColor=default;" vertex="1" parent="6NQg0BldIb21Iv9Iyl6s-38">
          <mxGeometry x="519" y="80" width="118.11" height="39.37" as="geometry" />
        </mxCell>
        <mxCell id="6NQg0BldIb21Iv9Iyl6s-3" value="left = 0&lt;br&gt;right&amp;nbsp; = размер массива" style="rounded=0;whiteSpace=wrap;html=1;aspect=fixed;fontFamily=Helvetica;fontSize=11;fontColor=default;" vertex="1" parent="6NQg0BldIb21Iv9Iyl6s-38">
          <mxGeometry y="80.63000000000011" width="118.11" height="78.74" as="geometry" />
        </mxCell>
        <mxCell id="6NQg0BldIb21Iv9Iyl6s-4" style="edgeStyle=orthogonalEdgeStyle;shape=connector;rounded=0;orthogonalLoop=1;jettySize=auto;html=1;labelBackgroundColor=default;strokeColor=default;fontFamily=Helvetica;fontSize=11;fontColor=default;endArrow=none;endFill=0;" edge="1" parent="6NQg0BldIb21Iv9Iyl6s-38" source="6NQg0BldIb21Iv9Iyl6s-1" target="6NQg0BldIb21Iv9Iyl6s-3">
          <mxGeometry relative="1" as="geometry" />
        </mxCell>
        <mxCell id="6NQg0BldIb21Iv9Iyl6s-5" value="left пока меньше либо равно right" style="shape=loopLimit;whiteSpace=wrap;html=1;aspect=fixed;fontFamily=Helvetica;fontSize=11;fontColor=default;" vertex="1" parent="6NQg0BldIb21Iv9Iyl6s-38">
          <mxGeometry x="1" y="200.6300000000001" width="118.11" height="78.74" as="geometry" />
        </mxCell>
        <mxCell id="6NQg0BldIb21Iv9Iyl6s-6" value="position = left + (right - left) / 2" style="rounded=0;whiteSpace=wrap;html=1;aspect=fixed;fontFamily=Helvetica;fontSize=11;fontColor=default;" vertex="1" parent="6NQg0BldIb21Iv9Iyl6s-38">
          <mxGeometry x="199.63" y="80.63000000000011" width="118.11" height="78.74" as="geometry" />
        </mxCell>
        <mxCell id="6NQg0BldIb21Iv9Iyl6s-7" value="1" style="ellipse;whiteSpace=wrap;html=1;aspect=fixed;fontFamily=Helvetica;fontSize=11;fontColor=default;" vertex="1" parent="6NQg0BldIb21Iv9Iyl6s-38">
          <mxGeometry x="40.370000000000005" y="320.6300000000001" width="39.37" height="39.37" as="geometry" />
        </mxCell>
        <mxCell id="6NQg0BldIb21Iv9Iyl6s-12" style="edgeStyle=orthogonalEdgeStyle;shape=connector;rounded=0;orthogonalLoop=1;jettySize=auto;html=1;labelBackgroundColor=default;strokeColor=default;fontFamily=Helvetica;fontSize=11;fontColor=default;endArrow=none;endFill=0;" edge="1" parent="6NQg0BldIb21Iv9Iyl6s-38" source="6NQg0BldIb21Iv9Iyl6s-5" target="6NQg0BldIb21Iv9Iyl6s-7">
          <mxGeometry relative="1" as="geometry" />
        </mxCell>
        <mxCell id="6NQg0BldIb21Iv9Iyl6s-8" value="Конец 1" style="ellipse;whiteSpace=wrap;html=1;aspect=fixed;fontFamily=Helvetica;fontSize=11;fontColor=default;" vertex="1" parent="6NQg0BldIb21Iv9Iyl6s-38">
          <mxGeometry x="40.370000000000005" y="380.6300000000001" width="39.37" height="39.37" as="geometry" />
        </mxCell>
        <mxCell id="6NQg0BldIb21Iv9Iyl6s-9" value="left" style="shape=loopLimit;whiteSpace=wrap;html=1;aspect=fixed;direction=west;fontFamily=Helvetica;fontSize=11;fontColor=default;" vertex="1" parent="6NQg0BldIb21Iv9Iyl6s-38">
          <mxGeometry x="1" y="460.6300000000001" width="118.11" height="78.74" as="geometry" />
        </mxCell>
        <mxCell id="6NQg0BldIb21Iv9Iyl6s-11" style="edgeStyle=orthogonalEdgeStyle;shape=connector;rounded=0;orthogonalLoop=1;jettySize=auto;html=1;labelBackgroundColor=default;strokeColor=default;fontFamily=Helvetica;fontSize=11;fontColor=default;endArrow=none;endFill=0;" edge="1" parent="6NQg0BldIb21Iv9Iyl6s-38" source="6NQg0BldIb21Iv9Iyl6s-8" target="6NQg0BldIb21Iv9Iyl6s-9">
          <mxGeometry relative="1" as="geometry" />
        </mxCell>
        <mxCell id="6NQg0BldIb21Iv9Iyl6s-14" style="edgeStyle=orthogonalEdgeStyle;shape=connector;rounded=0;orthogonalLoop=1;jettySize=auto;html=1;labelBackgroundColor=default;strokeColor=default;fontFamily=Helvetica;fontSize=11;fontColor=default;endArrow=none;endFill=0;" edge="1" parent="6NQg0BldIb21Iv9Iyl6s-38" source="6NQg0BldIb21Iv9Iyl6s-13" target="6NQg0BldIb21Iv9Iyl6s-6">
          <mxGeometry relative="1" as="geometry" />
        </mxCell>
        <mxCell id="6NQg0BldIb21Iv9Iyl6s-13" value="1" style="ellipse;whiteSpace=wrap;html=1;aspect=fixed;fontFamily=Helvetica;fontSize=11;fontColor=default;" vertex="1" parent="6NQg0BldIb21Iv9Iyl6s-38">
          <mxGeometry x="239" width="39.37" height="39.37" as="geometry" />
        </mxCell>
        <mxCell id="6NQg0BldIb21Iv9Iyl6s-15" value="массив[position] = искомое" style="rhombus;whiteSpace=wrap;html=1;aspect=fixed;fontFamily=Helvetica;fontSize=11;fontColor=default;" vertex="1" parent="6NQg0BldIb21Iv9Iyl6s-38">
          <mxGeometry x="200" y="200.6300000000001" width="118.11" height="78.74" as="geometry" />
        </mxCell>
        <mxCell id="6NQg0BldIb21Iv9Iyl6s-16" style="edgeStyle=orthogonalEdgeStyle;shape=connector;rounded=0;orthogonalLoop=1;jettySize=auto;html=1;labelBackgroundColor=default;strokeColor=default;fontFamily=Helvetica;fontSize=11;fontColor=default;endArrow=none;endFill=0;" edge="1" parent="6NQg0BldIb21Iv9Iyl6s-38" source="6NQg0BldIb21Iv9Iyl6s-6" target="6NQg0BldIb21Iv9Iyl6s-15">
          <mxGeometry relative="1" as="geometry" />
        </mxCell>
        <mxCell id="6NQg0BldIb21Iv9Iyl6s-20" style="edgeStyle=orthogonalEdgeStyle;shape=connector;rounded=0;orthogonalLoop=1;jettySize=auto;html=1;labelBackgroundColor=default;strokeColor=default;fontFamily=Helvetica;fontSize=11;fontColor=default;endArrow=none;endFill=0;" edge="1" parent="6NQg0BldIb21Iv9Iyl6s-38" source="6NQg0BldIb21Iv9Iyl6s-18" target="6NQg0BldIb21Iv9Iyl6s-2">
          <mxGeometry relative="1" as="geometry" />
        </mxCell>
        <mxCell id="6NQg0BldIb21Iv9Iyl6s-18" value="Выход" style="ellipse;whiteSpace=wrap;html=1;aspect=fixed;fontFamily=Helvetica;fontSize=11;fontColor=default;" vertex="1" parent="6NQg0BldIb21Iv9Iyl6s-38">
          <mxGeometry x="558.37" width="39.37" height="39.37" as="geometry" />
        </mxCell>
        <mxCell id="6NQg0BldIb21Iv9Iyl6s-21" value="Результат = массив[position]" style="rounded=0;whiteSpace=wrap;html=1;aspect=fixed;fontFamily=Helvetica;fontSize=11;fontColor=default;" vertex="1" parent="6NQg0BldIb21Iv9Iyl6s-38">
          <mxGeometry x="200" y="320.6300000000001" width="118.11" height="78.74" as="geometry" />
        </mxCell>
        <mxCell id="6NQg0BldIb21Iv9Iyl6s-24" value="Да" style="edgeStyle=orthogonalEdgeStyle;shape=connector;rounded=0;orthogonalLoop=1;jettySize=auto;html=1;labelBackgroundColor=default;strokeColor=default;fontFamily=Helvetica;fontSize=11;fontColor=default;endArrow=none;endFill=0;" edge="1" parent="6NQg0BldIb21Iv9Iyl6s-38" source="6NQg0BldIb21Iv9Iyl6s-15" target="6NQg0BldIb21Iv9Iyl6s-21">
          <mxGeometry x="-0.4542" relative="1" as="geometry">
            <mxPoint as="offset" />
          </mxGeometry>
        </mxCell>
        <mxCell id="6NQg0BldIb21Iv9Iyl6s-22" value="Выход" style="ellipse;whiteSpace=wrap;html=1;aspect=fixed;fontFamily=Helvetica;fontSize=11;fontColor=default;" vertex="1" parent="6NQg0BldIb21Iv9Iyl6s-38">
          <mxGeometry x="239.37" y="440.6300000000001" width="39.37" height="39.37" as="geometry" />
        </mxCell>
        <mxCell id="6NQg0BldIb21Iv9Iyl6s-23" style="edgeStyle=orthogonalEdgeStyle;shape=connector;rounded=0;orthogonalLoop=1;jettySize=auto;html=1;labelBackgroundColor=default;strokeColor=default;fontFamily=Helvetica;fontSize=11;fontColor=default;endArrow=none;endFill=0;" edge="1" parent="6NQg0BldIb21Iv9Iyl6s-38" source="6NQg0BldIb21Iv9Iyl6s-21" target="6NQg0BldIb21Iv9Iyl6s-22">
          <mxGeometry relative="1" as="geometry" />
        </mxCell>
        <mxCell id="6NQg0BldIb21Iv9Iyl6s-25" value="Выход" style="ellipse;whiteSpace=wrap;html=1;aspect=fixed;fontFamily=Helvetica;fontSize=11;fontColor=default;" vertex="1" parent="6NQg0BldIb21Iv9Iyl6s-38">
          <mxGeometry x="40.370000000000005" y="700.6300000000001" width="39.37" height="39.37" as="geometry" />
        </mxCell>
        <mxCell id="6NQg0BldIb21Iv9Iyl6s-28" style="edgeStyle=orthogonalEdgeStyle;shape=connector;rounded=0;orthogonalLoop=1;jettySize=auto;html=1;labelBackgroundColor=default;strokeColor=default;fontFamily=Helvetica;fontSize=11;fontColor=default;endArrow=none;endFill=0;" edge="1" parent="6NQg0BldIb21Iv9Iyl6s-38" source="6NQg0BldIb21Iv9Iyl6s-26" target="6NQg0BldIb21Iv9Iyl6s-25">
          <mxGeometry relative="1" as="geometry" />
        </mxCell>
        <mxCell id="6NQg0BldIb21Iv9Iyl6s-26" value="Результат = -1" style="rounded=0;whiteSpace=wrap;html=1;aspect=fixed;fontFamily=Helvetica;fontSize=11;fontColor=default;" vertex="1" parent="6NQg0BldIb21Iv9Iyl6s-38">
          <mxGeometry x="1" y="580.6300000000001" width="118.11" height="78.74" as="geometry" />
        </mxCell>
        <mxCell id="6NQg0BldIb21Iv9Iyl6s-27" style="edgeStyle=orthogonalEdgeStyle;shape=connector;rounded=0;orthogonalLoop=1;jettySize=auto;html=1;labelBackgroundColor=default;strokeColor=default;fontFamily=Helvetica;fontSize=11;fontColor=default;endArrow=none;endFill=0;" edge="1" parent="6NQg0BldIb21Iv9Iyl6s-38" source="6NQg0BldIb21Iv9Iyl6s-9" target="6NQg0BldIb21Iv9Iyl6s-26">
          <mxGeometry relative="1" as="geometry" />
        </mxCell>
        <mxCell id="6NQg0BldIb21Iv9Iyl6s-29" value="массив[position] &amp;lt; искомое" style="rhombus;whiteSpace=wrap;html=1;aspect=fixed;fontFamily=Helvetica;fontSize=11;fontColor=default;" vertex="1" parent="6NQg0BldIb21Iv9Iyl6s-38">
          <mxGeometry x="359" y="320.6300000000001" width="118.11" height="78.74" as="geometry" />
        </mxCell>
        <mxCell id="6NQg0BldIb21Iv9Iyl6s-30" value="Нет" style="edgeStyle=orthogonalEdgeStyle;shape=connector;rounded=0;orthogonalLoop=1;jettySize=auto;html=1;labelBackgroundColor=default;strokeColor=default;fontFamily=Helvetica;fontSize=11;fontColor=default;endArrow=none;endFill=0;" edge="1" parent="6NQg0BldIb21Iv9Iyl6s-38" source="6NQg0BldIb21Iv9Iyl6s-15" target="6NQg0BldIb21Iv9Iyl6s-29">
          <mxGeometry x="-0.8793" y="9" relative="1" as="geometry">
            <mxPoint as="offset" />
          </mxGeometry>
        </mxCell>
        <mxCell id="6NQg0BldIb21Iv9Iyl6s-31" value="left = position + 1" style="rounded=0;whiteSpace=wrap;html=1;aspect=fixed;fontFamily=Helvetica;fontSize=11;fontColor=default;" vertex="1" parent="6NQg0BldIb21Iv9Iyl6s-38">
          <mxGeometry x="359" y="440.6300000000001" width="118.11" height="78.74" as="geometry" />
        </mxCell>
        <mxCell id="6NQg0BldIb21Iv9Iyl6s-33" value="Да" style="edgeStyle=orthogonalEdgeStyle;shape=connector;rounded=0;orthogonalLoop=1;jettySize=auto;html=1;labelBackgroundColor=default;strokeColor=default;fontFamily=Helvetica;fontSize=11;fontColor=default;endArrow=none;endFill=0;" edge="1" parent="6NQg0BldIb21Iv9Iyl6s-38" source="6NQg0BldIb21Iv9Iyl6s-29" target="6NQg0BldIb21Iv9Iyl6s-31">
          <mxGeometry x="-0.4542" y="1" relative="1" as="geometry">
            <mxPoint as="offset" />
          </mxGeometry>
        </mxCell>
        <mxCell id="6NQg0BldIb21Iv9Iyl6s-32" value="right = position + 1" style="rounded=0;whiteSpace=wrap;html=1;aspect=fixed;fontFamily=Helvetica;fontSize=11;fontColor=default;" vertex="1" parent="6NQg0BldIb21Iv9Iyl6s-38">
          <mxGeometry x="519" y="440.6300000000001" width="118.11" height="78.74" as="geometry" />
        </mxCell>
        <mxCell id="6NQg0BldIb21Iv9Iyl6s-34" value="Нет" style="edgeStyle=orthogonalEdgeStyle;shape=connector;rounded=0;orthogonalLoop=1;jettySize=auto;html=1;labelBackgroundColor=default;strokeColor=default;fontFamily=Helvetica;fontSize=11;fontColor=default;endArrow=none;endFill=0;" edge="1" parent="6NQg0BldIb21Iv9Iyl6s-38" source="6NQg0BldIb21Iv9Iyl6s-29" target="6NQg0BldIb21Iv9Iyl6s-32">
          <mxGeometry x="-0.8689" y="9" relative="1" as="geometry">
            <mxPoint as="offset" />
          </mxGeometry>
        </mxCell>
        <mxCell id="6NQg0BldIb21Iv9Iyl6s-35" value="Конец 1" style="ellipse;whiteSpace=wrap;html=1;aspect=fixed;fontFamily=Helvetica;fontSize=11;fontColor=default;" vertex="1" parent="6NQg0BldIb21Iv9Iyl6s-38">
          <mxGeometry x="479.63" y="560.6300000000001" width="39.37" height="39.37" as="geometry" />
        </mxCell>
        <mxCell id="6NQg0BldIb21Iv9Iyl6s-36" style="edgeStyle=orthogonalEdgeStyle;shape=connector;rounded=0;orthogonalLoop=1;jettySize=auto;html=1;labelBackgroundColor=default;strokeColor=default;fontFamily=Helvetica;fontSize=11;fontColor=default;endArrow=none;endFill=0;" edge="1" parent="6NQg0BldIb21Iv9Iyl6s-38" source="6NQg0BldIb21Iv9Iyl6s-31" target="6NQg0BldIb21Iv9Iyl6s-35">
          <mxGeometry relative="1" as="geometry">
            <Array as="points">
              <mxPoint x="439" y="550.6300000000001" />
              <mxPoint x="499" y="550.6300000000001" />
            </Array>
          </mxGeometry>
        </mxCell>
        <mxCell id="6NQg0BldIb21Iv9Iyl6s-37" style="edgeStyle=orthogonalEdgeStyle;shape=connector;rounded=0;orthogonalLoop=1;jettySize=auto;html=1;labelBackgroundColor=default;strokeColor=default;fontFamily=Helvetica;fontSize=11;fontColor=default;endArrow=none;endFill=0;" edge="1" parent="6NQg0BldIb21Iv9Iyl6s-38" source="6NQg0BldIb21Iv9Iyl6s-32" target="6NQg0BldIb21Iv9Iyl6s-35">
          <mxGeometry relative="1" as="geometry">
            <Array as="points">
              <mxPoint x="578" y="540.6300000000001" />
              <mxPoint x="499" y="540.6300000000001" />
            </Array>
          </mxGeometry>
        </mxCell>
      </root>
    </mxGraphModel>
  </diagram>
  <diagram id="GhP4E5wHciQYwAo35xxT" name="Линейный поиск">
    <mxGraphModel dx="3585" dy="2090" grid="1" gridSize="10" guides="1" tooltips="1" connect="1" arrows="1" fold="1" page="1" pageScale="1" pageWidth="1654" pageHeight="1169" math="0" shadow="0">
      <root>
        <mxCell id="0" />
        <mxCell id="1" parent="0" />
        <mxCell id="sZrGrmneKzBNBomx1m1W-1" value="" style="group" vertex="1" connectable="0" parent="1">
          <mxGeometry width="1653.54" height="1169.289" as="geometry" />
        </mxCell>
        <mxCell id="sZrGrmneKzBNBomx1m1W-2" value="" style="rounded=0;whiteSpace=wrap;html=1;aspect=fixed;fillColor=none;strokeColor=none;" vertex="1" parent="sZrGrmneKzBNBomx1m1W-1">
          <mxGeometry width="1653.54" height="1169.289" as="geometry" />
        </mxCell>
        <mxCell id="sZrGrmneKzBNBomx1m1W-3" value="" style="rounded=0;whiteSpace=wrap;html=1;aspect=fixed;fillColor=none;" vertex="1" parent="sZrGrmneKzBNBomx1m1W-1">
          <mxGeometry x="78.74" y="19.685" width="1555.115" height="1129.9189999999999" as="geometry" />
        </mxCell>
        <mxCell id="sZrGrmneKzBNBomx1m1W-4" value="" style="group" vertex="1" connectable="0" parent="sZrGrmneKzBNBomx1m1W-1">
          <mxGeometry x="905.51" y="992.1239999999999" width="728.3499999999999" height="157.4550000000005" as="geometry" />
        </mxCell>
        <mxCell id="sZrGrmneKzBNBomx1m1W-5" value="Утв." style="rounded=0;whiteSpace=wrap;html=1;fontFamily=Helvetica;fontStyle=2;align=left;" vertex="1" parent="sZrGrmneKzBNBomx1m1W-4">
          <mxGeometry y="137.77000000000032" width="66.929" height="19.685" as="geometry" />
        </mxCell>
        <mxCell id="sZrGrmneKzBNBomx1m1W-6" value="Н.контр" style="rounded=0;whiteSpace=wrap;html=1;fontFamily=Helvetica;fontStyle=2;align=left;" vertex="1" parent="sZrGrmneKzBNBomx1m1W-4">
          <mxGeometry y="118.09000000000026" width="66.929" height="19.685" as="geometry" />
        </mxCell>
        <mxCell id="sZrGrmneKzBNBomx1m1W-7" value="Т.контр." style="rounded=0;whiteSpace=wrap;html=1;fontFamily=Helvetica;fontStyle=2;align=left;" vertex="1" parent="sZrGrmneKzBNBomx1m1W-4">
          <mxGeometry y="98.4100000000002" width="66.929" height="19.685" as="geometry" />
        </mxCell>
        <mxCell id="sZrGrmneKzBNBomx1m1W-8" value="Пров." style="rounded=0;whiteSpace=wrap;html=1;fontFamily=Helvetica;fontStyle=2;align=left;" vertex="1" parent="sZrGrmneKzBNBomx1m1W-4">
          <mxGeometry y="78.73000000000013" width="66.929" height="19.685" as="geometry" />
        </mxCell>
        <mxCell id="sZrGrmneKzBNBomx1m1W-9" value="Разраб." style="rounded=0;whiteSpace=wrap;html=1;fontFamily=Helvetica;fontStyle=2;align=left;" vertex="1" parent="sZrGrmneKzBNBomx1m1W-4">
          <mxGeometry y="59.05000000000007" width="66.929" height="19.685" as="geometry" />
        </mxCell>
        <mxCell id="sZrGrmneKzBNBomx1m1W-10" value="Послед А.Е." style="rounded=0;whiteSpace=wrap;html=1;fontFamily=Helvetica;fontStyle=2;align=left;" vertex="1" parent="sZrGrmneKzBNBomx1m1W-4">
          <mxGeometry x="66.93" y="59.04000000000008" width="90.551" height="19.685" as="geometry" />
        </mxCell>
        <mxCell id="sZrGrmneKzBNBomx1m1W-11" value="Савенко А.Г." style="rounded=0;whiteSpace=wrap;html=1;fontFamily=Helvetica;fontStyle=2;align=left;" vertex="1" parent="sZrGrmneKzBNBomx1m1W-4">
          <mxGeometry x="66.93" y="78.72000000000014" width="90.551" height="19.685" as="geometry" />
        </mxCell>
        <mxCell id="sZrGrmneKzBNBomx1m1W-12" value="" style="rounded=0;whiteSpace=wrap;html=1;fontFamily=Helvetica;fontStyle=2;align=left;" vertex="1" parent="sZrGrmneKzBNBomx1m1W-4">
          <mxGeometry x="66.93" y="98.42000000000019" width="90.551" height="19.685" as="geometry" />
        </mxCell>
        <mxCell id="sZrGrmneKzBNBomx1m1W-13" value="" style="rounded=0;whiteSpace=wrap;html=1;fontSize=10;fontFamily=Helvetica;fontStyle=2;align=left;" vertex="1" parent="sZrGrmneKzBNBomx1m1W-4">
          <mxGeometry x="66.93" y="118.10000000000025" width="90.551" height="19.685" as="geometry" />
        </mxCell>
        <mxCell id="sZrGrmneKzBNBomx1m1W-14" value="" style="rounded=0;whiteSpace=wrap;html=1;fontFamily=Helvetica;fontStyle=2;align=left;" vertex="1" parent="sZrGrmneKzBNBomx1m1W-4">
          <mxGeometry x="66.93" y="137.77000000000032" width="90.551" height="19.685" as="geometry" />
        </mxCell>
        <mxCell id="sZrGrmneKzBNBomx1m1W-15" value="" style="rounded=0;whiteSpace=wrap;html=1;fontFamily=Helvetica;fontStyle=2;align=left;" vertex="1" parent="sZrGrmneKzBNBomx1m1W-4">
          <mxGeometry x="157.48000000000002" y="137.77000000000032" width="59.055" height="19.685" as="geometry" />
        </mxCell>
        <mxCell id="sZrGrmneKzBNBomx1m1W-16" value="" style="rounded=0;whiteSpace=wrap;html=1;fontFamily=Helvetica;fontStyle=2;align=left;" vertex="1" parent="sZrGrmneKzBNBomx1m1W-4">
          <mxGeometry x="157.48000000000002" y="59.04000000000008" width="59.055" height="19.685" as="geometry" />
        </mxCell>
        <mxCell id="sZrGrmneKzBNBomx1m1W-17" value="" style="rounded=0;whiteSpace=wrap;html=1;fontFamily=Helvetica;fontStyle=2;align=left;" vertex="1" parent="sZrGrmneKzBNBomx1m1W-4">
          <mxGeometry x="157.48000000000002" y="78.72000000000014" width="59.055" height="19.685" as="geometry" />
        </mxCell>
        <mxCell id="sZrGrmneKzBNBomx1m1W-18" value="" style="rounded=0;whiteSpace=wrap;html=1;fontFamily=Helvetica;fontStyle=2;align=left;" vertex="1" parent="sZrGrmneKzBNBomx1m1W-4">
          <mxGeometry x="157.48000000000002" y="98.42000000000019" width="59.055" height="19.685" as="geometry" />
        </mxCell>
        <mxCell id="sZrGrmneKzBNBomx1m1W-19" value="" style="rounded=0;whiteSpace=wrap;html=1;fontFamily=Helvetica;fontStyle=2;align=left;" vertex="1" parent="sZrGrmneKzBNBomx1m1W-4">
          <mxGeometry x="157.48000000000002" y="118.10000000000025" width="59.055" height="19.685" as="geometry" />
        </mxCell>
        <mxCell id="sZrGrmneKzBNBomx1m1W-20" value="" style="rounded=0;whiteSpace=wrap;html=1;fontFamily=Helvetica;fontStyle=2;align=left;" vertex="1" parent="sZrGrmneKzBNBomx1m1W-4">
          <mxGeometry x="216.53000000000003" y="137.77000000000032" width="39.37" height="19.685" as="geometry" />
        </mxCell>
        <mxCell id="sZrGrmneKzBNBomx1m1W-21" value="" style="rounded=0;whiteSpace=wrap;html=1;fontFamily=Helvetica;fontStyle=2;align=left;" vertex="1" parent="sZrGrmneKzBNBomx1m1W-4">
          <mxGeometry x="216.53000000000003" y="59.04000000000008" width="39.37" height="19.685" as="geometry" />
        </mxCell>
        <mxCell id="sZrGrmneKzBNBomx1m1W-22" value="" style="rounded=0;whiteSpace=wrap;html=1;fontFamily=Helvetica;fontStyle=2;align=left;" vertex="1" parent="sZrGrmneKzBNBomx1m1W-4">
          <mxGeometry x="216.53000000000003" y="78.72000000000014" width="39.37" height="19.685" as="geometry" />
        </mxCell>
        <mxCell id="sZrGrmneKzBNBomx1m1W-23" value="" style="rounded=0;whiteSpace=wrap;html=1;fontFamily=Helvetica;fontStyle=2;align=left;" vertex="1" parent="sZrGrmneKzBNBomx1m1W-4">
          <mxGeometry x="216.53000000000003" y="98.42000000000019" width="39.37" height="19.685" as="geometry" />
        </mxCell>
        <mxCell id="sZrGrmneKzBNBomx1m1W-24" value="" style="rounded=0;whiteSpace=wrap;html=1;fontFamily=Helvetica;fontStyle=2;align=left;" vertex="1" parent="sZrGrmneKzBNBomx1m1W-4">
          <mxGeometry x="216.53000000000003" y="118.10000000000025" width="39.37" height="19.685" as="geometry" />
        </mxCell>
        <mxCell id="sZrGrmneKzBNBomx1m1W-25" value="№ докум." style="rounded=0;whiteSpace=wrap;html=1;fontFamily=Helvetica;fontStyle=2;align=center;" vertex="1" parent="sZrGrmneKzBNBomx1m1W-4">
          <mxGeometry x="66.93" y="39.360000000000014" width="90.551" height="19.685" as="geometry" />
        </mxCell>
        <mxCell id="sZrGrmneKzBNBomx1m1W-26" value="Подп." style="rounded=0;whiteSpace=wrap;html=1;fontFamily=Helvetica;fontStyle=2;align=center;" vertex="1" parent="sZrGrmneKzBNBomx1m1W-4">
          <mxGeometry x="157.48000000000002" y="39.360000000000014" width="59.055" height="19.685" as="geometry" />
        </mxCell>
        <mxCell id="sZrGrmneKzBNBomx1m1W-27" value="Дата" style="rounded=0;whiteSpace=wrap;html=1;fontFamily=Helvetica;fontStyle=2;align=center;" vertex="1" parent="sZrGrmneKzBNBomx1m1W-4">
          <mxGeometry x="216.53000000000003" y="39.360000000000014" width="39.37" height="19.685" as="geometry" />
        </mxCell>
        <mxCell id="sZrGrmneKzBNBomx1m1W-28" value="" style="rounded=0;whiteSpace=wrap;html=1;fontFamily=Helvetica;fontStyle=2;align=left;" vertex="1" parent="sZrGrmneKzBNBomx1m1W-4">
          <mxGeometry x="66.93" y="19.67999999999995" width="90.551" height="19.685" as="geometry" />
        </mxCell>
        <mxCell id="sZrGrmneKzBNBomx1m1W-29" value="" style="rounded=0;whiteSpace=wrap;html=1;fontFamily=Helvetica;fontStyle=2;align=left;" vertex="1" parent="sZrGrmneKzBNBomx1m1W-4">
          <mxGeometry x="157.48000000000002" y="19.67999999999995" width="59.055" height="19.685" as="geometry" />
        </mxCell>
        <mxCell id="sZrGrmneKzBNBomx1m1W-30" value="" style="rounded=0;whiteSpace=wrap;html=1;fontFamily=Helvetica;fontStyle=2;align=left;" vertex="1" parent="sZrGrmneKzBNBomx1m1W-4">
          <mxGeometry x="216.53000000000003" y="19.67999999999995" width="39.37" height="19.685" as="geometry" />
        </mxCell>
        <mxCell id="sZrGrmneKzBNBomx1m1W-31" value="" style="rounded=0;whiteSpace=wrap;html=1;fontFamily=Helvetica;fontStyle=2;align=left;" vertex="1" parent="sZrGrmneKzBNBomx1m1W-4">
          <mxGeometry x="66.93" width="90.551" height="19.685" as="geometry" />
        </mxCell>
        <mxCell id="sZrGrmneKzBNBomx1m1W-32" value="" style="rounded=0;whiteSpace=wrap;html=1;fontFamily=Helvetica;fontStyle=2;align=left;" vertex="1" parent="sZrGrmneKzBNBomx1m1W-4">
          <mxGeometry x="157.48000000000002" width="59.055" height="19.685" as="geometry" />
        </mxCell>
        <mxCell id="sZrGrmneKzBNBomx1m1W-33" value="" style="rounded=0;whiteSpace=wrap;html=1;fontFamily=Helvetica;fontStyle=2;align=left;" vertex="1" parent="sZrGrmneKzBNBomx1m1W-4">
          <mxGeometry x="216.53000000000003" width="39.37" height="19.685" as="geometry" />
        </mxCell>
        <mxCell id="sZrGrmneKzBNBomx1m1W-34" value="Изм." style="rounded=0;whiteSpace=wrap;html=1;fontFamily=Helvetica;fontStyle=2;align=center;" vertex="1" parent="sZrGrmneKzBNBomx1m1W-4">
          <mxGeometry y="39.360000000000014" width="27.558999999999997" height="19.685" as="geometry" />
        </mxCell>
        <mxCell id="sZrGrmneKzBNBomx1m1W-35" value="Л." style="rounded=0;whiteSpace=wrap;html=1;fontFamily=Helvetica;fontStyle=2;align=center;" vertex="1" parent="sZrGrmneKzBNBomx1m1W-4">
          <mxGeometry x="27.56" y="39.360000000000014" width="39.37" height="19.685" as="geometry" />
        </mxCell>
        <mxCell id="sZrGrmneKzBNBomx1m1W-36" value="" style="rounded=0;whiteSpace=wrap;html=1;fontFamily=Helvetica;fontStyle=2;align=left;" vertex="1" parent="sZrGrmneKzBNBomx1m1W-4">
          <mxGeometry y="19.67999999999995" width="27.558999999999997" height="19.685" as="geometry" />
        </mxCell>
        <mxCell id="sZrGrmneKzBNBomx1m1W-37" value="" style="rounded=0;whiteSpace=wrap;html=1;fontFamily=Helvetica;fontStyle=2;align=left;" vertex="1" parent="sZrGrmneKzBNBomx1m1W-4">
          <mxGeometry x="27.56" y="19.67999999999995" width="39.37" height="19.685" as="geometry" />
        </mxCell>
        <mxCell id="sZrGrmneKzBNBomx1m1W-38" value="" style="rounded=0;whiteSpace=wrap;html=1;fontFamily=Helvetica;fontStyle=2;align=left;" vertex="1" parent="sZrGrmneKzBNBomx1m1W-4">
          <mxGeometry width="27.558999999999997" height="19.685" as="geometry" />
        </mxCell>
        <mxCell id="sZrGrmneKzBNBomx1m1W-39" value="" style="rounded=0;whiteSpace=wrap;html=1;fontFamily=Helvetica;fontStyle=2;align=left;" vertex="1" parent="sZrGrmneKzBNBomx1m1W-4">
          <mxGeometry x="27.56" width="39.37" height="19.685" as="geometry" />
        </mxCell>
        <mxCell id="sZrGrmneKzBNBomx1m1W-40" value="Блок-схема алгоритма&lt;br&gt;&quot;Алгоритм линейного поиска&quot;" style="rounded=0;whiteSpace=wrap;html=1;fontFamily=Helvetica;fontStyle=2;align=center;" vertex="1" parent="sZrGrmneKzBNBomx1m1W-4">
          <mxGeometry x="255.9" y="59.030000000000314" width="275.59" height="98.425" as="geometry" />
        </mxCell>
        <mxCell id="sZrGrmneKzBNBomx1m1W-41" value="ГУИР.281073.003" style="rounded=0;whiteSpace=wrap;html=1;fontFamily=Helvetica;fontStyle=2;align=center;" vertex="1" parent="sZrGrmneKzBNBomx1m1W-4">
          <mxGeometry x="255.9" y="3.410605131648481e-13" width="275.59" height="59.055" as="geometry" />
        </mxCell>
        <mxCell id="sZrGrmneKzBNBomx1m1W-42" value="" style="rounded=0;whiteSpace=wrap;html=1;fontFamily=Helvetica;fontStyle=2;align=center;" vertex="1" parent="sZrGrmneKzBNBomx1m1W-4">
          <mxGeometry x="531.49" y="3.410605131648481e-13" width="196.85" height="59.055" as="geometry" />
        </mxCell>
        <mxCell id="sZrGrmneKzBNBomx1m1W-43" value="ФКТ, гр. 281073" style="rounded=0;whiteSpace=wrap;html=1;fontFamily=Helvetica;fontStyle=2;align=center;" vertex="1" parent="sZrGrmneKzBNBomx1m1W-4">
          <mxGeometry x="531.49" y="98.40000000000043" width="196.85" height="59.055" as="geometry" />
        </mxCell>
        <mxCell id="sZrGrmneKzBNBomx1m1W-44" value="Лит." style="rounded=0;whiteSpace=wrap;html=1;fontFamily=Helvetica;fontStyle=2;align=center;" vertex="1" parent="sZrGrmneKzBNBomx1m1W-4">
          <mxGeometry x="531.49" y="59.050000000000296" width="59.055" height="19.685" as="geometry" />
        </mxCell>
        <mxCell id="sZrGrmneKzBNBomx1m1W-45" value="Лист." style="rounded=0;whiteSpace=wrap;html=1;fontFamily=Helvetica;fontStyle=2;align=center;" vertex="1" parent="sZrGrmneKzBNBomx1m1W-4">
          <mxGeometry x="590.54" y="59.030000000000314" width="59.055" height="19.685" as="geometry" />
        </mxCell>
        <mxCell id="sZrGrmneKzBNBomx1m1W-46" value="Листов" style="rounded=0;whiteSpace=wrap;html=1;fontFamily=Helvetica;fontStyle=2;align=center;" vertex="1" parent="sZrGrmneKzBNBomx1m1W-4">
          <mxGeometry x="649.5899999999999" y="59.030000000000314" width="78.74" height="19.685" as="geometry" />
        </mxCell>
        <mxCell id="sZrGrmneKzBNBomx1m1W-47" value="3" style="rounded=0;whiteSpace=wrap;html=1;fontFamily=Helvetica;fontStyle=2;align=center;" vertex="1" parent="sZrGrmneKzBNBomx1m1W-4">
          <mxGeometry x="590.55" y="78.71000000000038" width="59.055" height="19.685" as="geometry" />
        </mxCell>
        <mxCell id="sZrGrmneKzBNBomx1m1W-48" value="3" style="rounded=0;whiteSpace=wrap;html=1;fontFamily=Helvetica;fontStyle=2;align=center;" vertex="1" parent="sZrGrmneKzBNBomx1m1W-4">
          <mxGeometry x="649.6099999999999" y="78.71000000000038" width="78.74" height="19.685" as="geometry" />
        </mxCell>
        <mxCell id="sZrGrmneKzBNBomx1m1W-49" value="" style="rounded=0;whiteSpace=wrap;html=1;fontFamily=Helvetica;fontStyle=2;align=center;" vertex="1" parent="sZrGrmneKzBNBomx1m1W-4">
          <mxGeometry x="531.49" y="78.73000000000036" width="19.685" height="19.685" as="geometry" />
        </mxCell>
        <mxCell id="sZrGrmneKzBNBomx1m1W-50" value="Т" style="rounded=0;whiteSpace=wrap;html=1;fontFamily=Helvetica;fontStyle=2;align=center;" vertex="1" parent="sZrGrmneKzBNBomx1m1W-4">
          <mxGeometry x="551.17" y="78.71000000000038" width="19.685" height="19.685" as="geometry" />
        </mxCell>
        <mxCell id="sZrGrmneKzBNBomx1m1W-51" value="" style="rounded=0;whiteSpace=wrap;html=1;fontFamily=Helvetica;fontStyle=2;align=center;" vertex="1" parent="sZrGrmneKzBNBomx1m1W-4">
          <mxGeometry x="570.8499999999999" y="78.73000000000036" width="19.685" height="19.685" as="geometry" />
        </mxCell>
        <mxCell id="FLE8AGwMT8QjBzceOqKJ-84" value="" style="group" vertex="1" connectable="0" parent="sZrGrmneKzBNBomx1m1W-1">
          <mxGeometry x="707.24" y="345" width="298.11" height="479.3699999999999" as="geometry" />
        </mxCell>
        <mxCell id="FLE8AGwMT8QjBzceOqKJ-71" value="Начало" style="strokeWidth=1;html=1;shape=stencil(xVXBboMwDP0ajkxAtK49Tqw79rJJO7vUpVFDgpysdH+/0IBaoDCayyQO+Bne83NsJWCpPkCJQRJJKDBgb0GSfCIVXIJRZAObOTh4EbmwcuFq6ULQJWbGYScgDluBLqMNqSNWfGcaBi4PSNzUWbYOolf7Tf2wNFNSWhKupO5kbvKWDLi0/0ZnRxY9PTuZnyZ2UWkVCjRIHfRqbuOAIHn3VornKX14KHUdtbp/KX09rhT7Ka19uhf3xeKZHdx4GLsjt1zNPDAvuZb9cXdezRzIzXY3IsdSi4wtIEu3kB1zUt9yd7fIEurlHiTadKFOeK2+P99T/lsGweUNw8vycQagzL5QrwZqKFgTn0M4cx2SMlC3ocMvgHIMLU+4F5B3UrpCLG/g5uzvl7vwcNzr2TyKf7Tsc8aZUBonNsHigzm7oCPDydK9IpyY2j0Xwt1OYwsxILig7q68AL8=);whiteSpace=wrap;aspect=fixed;fontFamily=Helvetica;fontSize=11;fontColor=default;" vertex="1" parent="FLE8AGwMT8QjBzceOqKJ-84">
          <mxGeometry x="20" width="118.11" height="39.37" as="geometry" />
        </mxCell>
        <mxCell id="FLE8AGwMT8QjBzceOqKJ-72" style="edgeStyle=orthogonalEdgeStyle;shape=connector;rounded=0;orthogonalLoop=1;jettySize=auto;html=1;labelBackgroundColor=default;strokeColor=default;fontFamily=Helvetica;fontSize=11;fontColor=default;endArrow=none;endFill=0;" edge="1" source="FLE8AGwMT8QjBzceOqKJ-71" parent="FLE8AGwMT8QjBzceOqKJ-84" target="FLE8AGwMT8QjBzceOqKJ-73">
          <mxGeometry relative="1" as="geometry">
            <mxPoint x="79" y="81" as="targetPoint" />
          </mxGeometry>
        </mxCell>
        <mxCell id="FLE8AGwMT8QjBzceOqKJ-73" value="i = 0; &lt;br&gt;размер массива;&lt;br&gt;1" style="shape=hexagon;perimeter=hexagonPerimeter2;whiteSpace=wrap;html=1;fixedSize=1;aspect=fixed;fontFamily=Helvetica;fontSize=11;fontColor=default;" vertex="1" parent="FLE8AGwMT8QjBzceOqKJ-84">
          <mxGeometry x="20" y="80" width="118.11" height="78.74" as="geometry" />
        </mxCell>
        <mxCell id="FLE8AGwMT8QjBzceOqKJ-78" value="Нет" style="edgeStyle=orthogonalEdgeStyle;shape=connector;rounded=0;orthogonalLoop=1;jettySize=auto;html=1;labelBackgroundColor=default;strokeColor=default;fontFamily=Helvetica;fontSize=11;fontColor=default;endArrow=none;endFill=0;" edge="1" parent="FLE8AGwMT8QjBzceOqKJ-84" source="FLE8AGwMT8QjBzceOqKJ-74" target="FLE8AGwMT8QjBzceOqKJ-73">
          <mxGeometry x="-1" y="-19" relative="1" as="geometry">
            <Array as="points">
              <mxPoint y="239" />
              <mxPoint y="120" />
            </Array>
            <mxPoint as="offset" />
          </mxGeometry>
        </mxCell>
        <mxCell id="FLE8AGwMT8QjBzceOqKJ-74" value="массив[i] = искомое" style="rhombus;whiteSpace=wrap;html=1;aspect=fixed;fontFamily=Helvetica;fontSize=11;fontColor=default;" vertex="1" parent="FLE8AGwMT8QjBzceOqKJ-84">
          <mxGeometry x="20" y="200" width="118.11" height="78.74" as="geometry" />
        </mxCell>
        <mxCell id="FLE8AGwMT8QjBzceOqKJ-75" style="edgeStyle=orthogonalEdgeStyle;shape=connector;rounded=0;orthogonalLoop=1;jettySize=auto;html=1;labelBackgroundColor=default;strokeColor=default;fontFamily=Helvetica;fontSize=11;fontColor=default;endArrow=none;endFill=0;" edge="1" parent="FLE8AGwMT8QjBzceOqKJ-84" source="FLE8AGwMT8QjBzceOqKJ-73" target="FLE8AGwMT8QjBzceOqKJ-74">
          <mxGeometry relative="1" as="geometry" />
        </mxCell>
        <mxCell id="FLE8AGwMT8QjBzceOqKJ-76" value="Результат = массив[i]" style="rounded=0;whiteSpace=wrap;html=1;aspect=fixed;fontFamily=Helvetica;fontSize=11;fontColor=default;" vertex="1" parent="FLE8AGwMT8QjBzceOqKJ-84">
          <mxGeometry x="20" y="320" width="118.11" height="78.74" as="geometry" />
        </mxCell>
        <mxCell id="FLE8AGwMT8QjBzceOqKJ-77" value="Да" style="edgeStyle=orthogonalEdgeStyle;shape=connector;rounded=0;orthogonalLoop=1;jettySize=auto;html=1;labelBackgroundColor=default;strokeColor=default;fontFamily=Helvetica;fontSize=11;fontColor=default;endArrow=none;endFill=0;" edge="1" parent="FLE8AGwMT8QjBzceOqKJ-84" source="FLE8AGwMT8QjBzceOqKJ-74" target="FLE8AGwMT8QjBzceOqKJ-76">
          <mxGeometry x="-0.4542" relative="1" as="geometry">
            <mxPoint as="offset" />
          </mxGeometry>
        </mxCell>
        <mxCell id="FLE8AGwMT8QjBzceOqKJ-79" value="Результат = -1" style="rounded=0;whiteSpace=wrap;html=1;aspect=fixed;fontFamily=Helvetica;fontSize=11;fontColor=default;" vertex="1" parent="FLE8AGwMT8QjBzceOqKJ-84">
          <mxGeometry x="180" y="320" width="118.11" height="78.74" as="geometry" />
        </mxCell>
        <mxCell id="FLE8AGwMT8QjBzceOqKJ-80" style="edgeStyle=orthogonalEdgeStyle;shape=connector;rounded=0;orthogonalLoop=1;jettySize=auto;html=1;labelBackgroundColor=default;strokeColor=default;fontFamily=Helvetica;fontSize=11;fontColor=default;endArrow=none;endFill=0;" edge="1" parent="FLE8AGwMT8QjBzceOqKJ-84" source="FLE8AGwMT8QjBzceOqKJ-73" target="FLE8AGwMT8QjBzceOqKJ-79">
          <mxGeometry relative="1" as="geometry" />
        </mxCell>
        <mxCell id="FLE8AGwMT8QjBzceOqKJ-81" value="Конец" style="strokeWidth=1;html=1;shape=stencil(xVXBboMwDP0ajkxAtK49Tqw79rJJO7vUpVFDgpysdH+/0IBaoDCayyQO+Bne83NsJWCpPkCJQRJJKDBgb0GSfCIVXIJRZAObOTh4EbmwcuFq6ULQJWbGYScgDluBLqMNqSNWfGcaBi4PSNzUWbYOolf7Tf2wNFNSWhKupO5kbvKWDLi0/0ZnRxY9PTuZnyZ2UWkVCjRIHfRqbuOAIHn3VornKX14KHUdtbp/KX09rhT7Ka19uhf3xeKZHdx4GLsjt1zNPDAvuZb9cXdezRzIzXY3IsdSi4wtIEu3kB1zUt9yd7fIEurlHiTadKFOeK2+P99T/lsGweUNw8vycQagzL5QrwZqKFgTn0M4cx2SMlC3ocMvgHIMLU+4F5B3UrpCLG/g5uzvl7vwcNzr2TyKf7Tsc8aZUBonNsHigzm7oCPDydK9IpyY2j0Xwt1OYwsxILig7q68AL8=);whiteSpace=wrap;aspect=fixed;fontFamily=Helvetica;fontSize=11;fontColor=default;" vertex="1" parent="FLE8AGwMT8QjBzceOqKJ-84">
          <mxGeometry x="100" y="440" width="118.11" height="39.37" as="geometry" />
        </mxCell>
        <mxCell id="FLE8AGwMT8QjBzceOqKJ-82" style="edgeStyle=orthogonalEdgeStyle;shape=connector;rounded=0;orthogonalLoop=1;jettySize=auto;html=1;labelBackgroundColor=default;strokeColor=default;fontFamily=Helvetica;fontSize=11;fontColor=default;endArrow=none;endFill=0;" edge="1" parent="FLE8AGwMT8QjBzceOqKJ-84" source="FLE8AGwMT8QjBzceOqKJ-76" target="FLE8AGwMT8QjBzceOqKJ-81">
          <mxGeometry relative="1" as="geometry">
            <Array as="points">
              <mxPoint x="79" y="430" />
              <mxPoint x="159" y="430" />
            </Array>
          </mxGeometry>
        </mxCell>
        <mxCell id="FLE8AGwMT8QjBzceOqKJ-83" style="edgeStyle=orthogonalEdgeStyle;shape=connector;rounded=0;orthogonalLoop=1;jettySize=auto;html=1;labelBackgroundColor=default;strokeColor=default;fontFamily=Helvetica;fontSize=11;fontColor=default;endArrow=none;endFill=0;" edge="1" parent="FLE8AGwMT8QjBzceOqKJ-84" source="FLE8AGwMT8QjBzceOqKJ-79" target="FLE8AGwMT8QjBzceOqKJ-81">
          <mxGeometry relative="1" as="geometry">
            <Array as="points">
              <mxPoint x="239" y="420" />
              <mxPoint x="159" y="420" />
            </Array>
          </mxGeometry>
        </mxCell>
      </root>
    </mxGraphModel>
  </diagram>
</mxfile>
